<svg width="21" height="28" viewBox="0 0 21 28" fill="none" xmlns="http://www.w3.org/2000/svg">
<path d="M13.5387 21.4371C13.3905 21.5854 13.2146 21.703 13.0209 21.7833C12.8272 21.8635 12.6196 21.9048 12.41 21.9048C12.2004 21.9048 11.9928 21.8635 11.7991 21.7833C11.6055 21.703 11.4295 21.5854 11.2813 21.4371L2.09933 12.2566C0.775035 10.9053 0.0375329 9.08593 0.0470888 7.19391C0.0566447 5.30188 0.812486 3.49008 2.15037 2.1522C3.48824 0.814317 5.30005 0.0584758 7.19208 0.0489198C9.0841 0.0393639 10.9034 0.776866 12.2548 2.10116L18.0579 7.90427C18.3565 8.20439 18.5236 8.61083 18.5225 9.03418C18.5214 9.45752 18.3522 9.8631 18.0521 10.1617C17.752 10.4603 17.3455 10.6274 16.9222 10.6263C16.4988 10.6252 16.0933 10.456 15.7947 10.1559L9.99881 4.35277C9.25005 3.60401 8.23451 3.18336 7.1756 3.18336C6.11669 3.18336 5.10115 3.60401 4.35239 4.35277C3.60363 5.10153 3.18298 6.11707 3.18298 7.17598C3.18298 8.23489 3.60363 9.25043 4.35239 9.99919L13.5344 19.1812C13.8339 19.4798 14.0027 19.8852 14.0035 20.3082C14.0043 20.7313 13.8371 21.1373 13.5387 21.4371Z" fill="#7C5CFC"/>
<path d="M18.0013 25.8997C16.6534 27.2441 14.8273 27.9992 12.9236 27.9992C11.0198 27.9992 9.19371 27.2441 7.84583 25.8997L2.04998 20.0966C1.88914 19.9515 1.75953 19.7751 1.66903 19.5784C1.57853 19.3816 1.52904 19.1684 1.52358 18.9519C1.51812 18.7353 1.55679 18.5199 1.63725 18.3188C1.71771 18.1177 1.83826 17.9351 1.99158 17.7821C2.14489 17.6291 2.32775 17.5089 2.52901 17.4288C2.73028 17.3487 2.94574 17.3105 3.16226 17.3163C3.37879 17.3222 3.59185 17.3721 3.78848 17.463C3.9851 17.5539 4.16116 17.6838 4.30594 17.8449L10.1018 23.6481C10.8517 24.388 11.8638 24.8013 12.9173 24.7977C13.9708 24.7942 14.9801 24.3741 15.725 23.6292C16.47 22.8843 16.89 21.875 16.8935 20.8215C16.8971 19.768 16.4838 18.7559 15.7439 18.006L6.5619 8.81966C6.26255 8.52031 6.09437 8.1143 6.09437 7.69096C6.09437 7.26761 6.26255 6.8616 6.5619 6.56225C6.86125 6.2629 7.26725 6.09473 7.6906 6.09473C8.11395 6.09473 8.51995 6.2629 8.81931 6.56225L18.0013 15.7442C19.3461 17.0919 20.1014 18.918 20.1014 20.8219C20.1014 22.7258 19.3461 24.552 18.0013 25.8997Z" fill="#7C5CFC"/>
</svg>
