<svg width="21" height="28" viewBox="0 0 21 28" fill="none" xmlns="http://www.w3.org/2000/svg">
<path d="M13.5387 21.4367C13.3905 21.585 13.2146 21.7026 13.0209 21.7828C12.8272 21.8631 12.6196 21.9044 12.41 21.9044C12.2004 21.9044 11.9928 21.8631 11.7991 21.7828C11.6055 21.7026 11.4295 21.585 11.2813 21.4367L2.09933 12.2562C0.775035 10.9049 0.0375329 9.0855 0.0470888 7.19348C0.0566447 5.30146 0.812486 3.48965 2.15037 2.15177C3.48824 0.81389 5.30005 0.0580485 7.19208 0.0484926C9.0841 0.0389367 10.9034 0.776438 12.2548 2.10074L18.0579 7.90384C18.3565 8.20396 18.5236 8.6104 18.5225 9.03375C18.5214 9.4571 18.3522 9.86267 18.0521 10.1613C17.752 10.4598 17.3455 10.627 16.9222 10.6259C16.4988 10.6248 16.0933 10.4556 15.7947 10.1555L9.99881 4.35234C9.25005 3.60358 8.23451 3.18293 7.1756 3.18293C6.11669 3.18293 5.10115 3.60358 4.35239 4.35234C3.60363 5.1011 3.18298 6.11664 3.18298 7.17555C3.18298 8.23446 3.60363 9.25 4.35239 9.99877L13.5344 19.1807C13.8339 19.4794 14.0027 19.8848 14.0035 20.3078C14.0043 20.7308 13.8371 21.1369 13.5387 21.4367Z" fill="#E7DEFE"/>
<path d="M18.0013 25.8993C16.6534 27.2438 14.8273 27.9988 12.9236 27.9988C11.0198 27.9988 9.19371 27.2438 7.84583 25.8993L2.04998 20.0962C1.88914 19.9511 1.75953 19.7748 1.66903 19.578C1.57853 19.3812 1.52904 19.168 1.52358 18.9515C1.51812 18.735 1.55679 18.5196 1.63725 18.3185C1.71771 18.1173 1.83826 17.9347 1.99158 17.7817C2.14489 17.6287 2.32775 17.5085 2.52901 17.4284C2.73028 17.3483 2.94574 17.3101 3.16226 17.316C3.37879 17.3219 3.59185 17.3718 3.78848 17.4626C3.9851 17.5535 4.16116 17.6835 4.30594 17.8446L10.1018 23.6477C10.8517 24.3876 11.8638 24.8009 12.9173 24.7974C13.9708 24.7938 14.9801 24.3738 15.725 23.6288C16.47 22.8839 16.89 21.8746 16.8935 20.8211C16.8971 19.7676 16.4838 18.7555 15.7439 18.0056L6.5619 8.81929C6.26255 8.51994 6.09437 8.11394 6.09437 7.69059C6.09437 7.26724 6.26255 6.86124 6.5619 6.56188C6.86125 6.26253 7.26725 6.09436 7.6906 6.09436C8.11395 6.09436 8.51995 6.26253 8.81931 6.56188L18.0013 15.7439C19.3461 17.0915 20.1014 18.9177 20.1014 20.8216C20.1014 22.7255 19.3461 24.5516 18.0013 25.8993Z" fill="#E7DEFE"/>
</svg>
