<svg width="28" height="24" viewBox="0 0 28 24" fill="none" xmlns="http://www.w3.org/2000/svg">
<path d="M23.0667 9.21289C21.56 9.21289 20.2133 9.94622 19.3733 11.0662C18.5333 9.94622 17.1867 9.21289 15.68 9.21289C13.1333 9.21289 11.0667 11.2929 11.0667 13.8529C11.0667 14.8396 11.2266 15.7596 11.4933 16.5996C12.8 20.7462 16.8533 23.2396 18.8533 23.9196C19.1333 24.0129 19.6 24.0129 19.88 23.9196C21.88 23.2396 25.9333 20.7596 27.24 16.5996C27.52 15.7462 27.6667 14.8396 27.6667 13.8529C27.68 11.2929 25.6133 9.21289 23.0667 9.21289Z" fill="#7C5CFC"/>
<path d="M25.6666 7.12046C25.6666 7.42712 25.36 7.62712 25.0666 7.54712C23.2666 7.08046 21.2933 7.46712 19.8 8.53379C19.5066 8.74712 19.1066 8.74712 18.8266 8.53379C17.7733 7.76045 16.4933 7.33379 15.1466 7.33379C11.7066 7.33379 8.90663 10.1471 8.90663 13.6138C8.90663 17.3738 10.7066 20.1871 12.52 22.0671C12.6133 22.1605 12.5333 22.3205 12.4133 22.2671C8.77329 21.0271 0.666626 15.8805 0.666626 7.12046C0.666626 3.25379 3.77329 0.133789 7.61329 0.133789C9.89329 0.133789 11.9066 1.22712 13.1733 2.92046C14.4533 1.22712 16.4666 0.133789 18.7333 0.133789C22.56 0.133789 25.6666 3.25379 25.6666 7.12046Z" fill="#7C5CFC"/>
</svg>
