<svg width="27" height="23" viewBox="0 0 27 23" fill="none" xmlns="http://www.w3.org/2000/svg">
<path d="M26.6667 2.66997V15.4433C26.6667 19.1233 23.6801 22.11 20.0001 22.11H6.66672C6.05339 22.11 5.46672 22.03 4.89339 21.87C4.06672 21.6433 3.80005 20.59 4.41339 19.9766L18.5867 5.8033C18.8801 5.50997 19.3201 5.4433 19.7334 5.5233C20.1601 5.6033 20.6267 5.4833 20.9601 5.1633L24.3867 1.7233C25.6401 0.469969 26.6667 0.883302 26.6667 2.66997Z" fill="#7C5CFC"/>
<path d="M16.8533 4.87L2.89333 18.83C2.25333 19.47 1.18667 19.31 0.76 18.51C0.266667 17.6033 0 16.55 0 15.4433V2.67C0 0.883333 1.02667 0.47 2.28 1.72333L5.72 5.17667C6.24 5.68333 7.09333 5.68333 7.61333 5.17667L12.3867 0.39C12.9067 -0.13 13.76 -0.13 14.28 0.39L16.8667 2.97667C17.3733 3.49667 17.3733 4.35 16.8533 4.87Z" fill="#7C5CFC"/>
</svg>
