<svg width="425" height="350" viewBox="0 0 425 350" fill="none" xmlns="http://www.w3.org/2000/svg">
<g filter="url(#filter0_d_76_6301)">
<rect x="60" y="60" width="265" height="455.956" rx="7.79412" fill="white" shape-rendering="crispEdges"/>
<path d="M291.485 86.8242C290.628 86.8242 289.927 87.5549 289.927 88.448C289.927 89.3411 290.628 90.0718 291.485 90.0718C292.343 90.0718 293.044 89.3411 293.044 88.448C293.044 87.5549 292.343 86.8242 291.485 86.8242Z" stroke="#1A202C" stroke-width="1.16912"/>
<path d="M302.397 86.8242C301.54 86.8242 300.838 87.5549 300.838 88.448C300.838 89.3411 301.54 90.0718 302.397 90.0718C303.255 90.0718 303.956 89.3411 303.956 88.448C303.956 87.5549 303.255 86.8242 302.397 86.8242Z" stroke="#1A202C" stroke-width="1.16912"/>
<path d="M296.941 86.8242C296.084 86.8242 295.383 87.5549 295.383 88.448C295.383 89.3411 296.084 90.0718 296.941 90.0718C297.799 90.0718 298.5 89.3411 298.5 88.448C298.5 87.5549 297.799 86.8242 296.941 86.8242Z" stroke="#1A202C" stroke-width="1.16912"/>
<path d="M82.921 93.8547C82.339 93.8547 81.7986 93.7466 81.2998 93.5305C80.801 93.306 80.377 93.0026 80.0278 92.6201C79.6786 92.2377 79.4209 91.7971 79.2546 91.2983L80.5017 90.7745C80.7262 91.3481 81.0546 91.7888 81.4869 92.0964C81.9192 92.404 82.418 92.5578 82.9833 92.5578C83.3159 92.5578 83.6069 92.5079 83.8563 92.4081C84.1057 92.3001 84.2969 92.1504 84.4299 91.9592C84.5713 91.768 84.6419 91.5477 84.6419 91.2983C84.6419 90.9574 84.5463 90.6872 84.3551 90.4877C84.1639 90.2881 83.8812 90.1302 83.5071 90.0138L81.7612 89.4651C81.0629 89.2489 80.5308 88.9205 80.165 88.4799C79.7992 88.031 79.6163 87.5072 79.6163 86.9086C79.6163 86.3848 79.7451 85.9276 80.0029 85.5368C80.2606 85.1378 80.6139 84.826 81.0629 84.6015C81.5201 84.3771 82.0397 84.2648 82.6217 84.2648C83.1787 84.2648 83.6859 84.3646 84.1431 84.5641C84.6004 84.7554 84.9911 85.0214 85.3153 85.3623C85.6479 85.7031 85.889 86.098 86.0386 86.547L84.8165 87.0832C84.6336 86.5927 84.3468 86.2144 83.9561 85.9484C83.5736 85.6823 83.1288 85.5493 82.6217 85.5493C82.3141 85.5493 82.0439 85.6034 81.8111 85.7114C81.5783 85.8112 81.3954 85.9608 81.2624 86.1604C81.1377 86.3516 81.0753 86.5761 81.0753 86.8338C81.0753 87.1331 81.171 87.3991 81.3622 87.6319C81.5534 87.8647 81.8444 88.0393 82.2351 88.1557L83.8563 88.667C84.5962 88.8914 85.1532 89.2157 85.5273 89.6397C85.9015 90.0554 86.0885 90.575 86.0885 91.1985C86.0885 91.7139 85.9513 92.1712 85.677 92.5703C85.411 92.9693 85.041 93.2852 84.5671 93.518C84.0932 93.7425 83.5445 93.8547 82.921 93.8547ZM87.3538 96.1992V86.9585H88.7006V88.3552L88.5385 88.031C88.7879 87.6485 89.1205 87.3492 89.5362 87.1331C89.9518 86.9169 90.4257 86.8088 90.9578 86.8088C91.598 86.8088 92.1716 86.9626 92.6787 87.2703C93.1942 87.5779 93.5974 87.9977 93.8884 88.5298C94.1877 89.0619 94.3373 89.6605 94.3373 90.3255C94.3373 90.9906 94.1877 91.5892 93.8884 92.1213C93.5974 92.6534 93.1983 93.0774 92.6912 93.3933C92.1841 93.7009 91.6063 93.8547 90.9578 93.8547C90.434 93.8547 89.956 93.7466 89.5237 93.5305C89.0997 93.3143 88.7713 93.0026 88.5385 92.5952L88.763 92.3333V96.1992H87.3538ZM90.8206 92.5453C91.2197 92.5453 91.573 92.4497 91.8806 92.2585C92.1882 92.0673 92.4293 91.8054 92.6039 91.4728C92.7868 91.132 92.8783 90.7495 92.8783 90.3255C92.8783 89.9015 92.7868 89.5233 92.6039 89.1907C92.4293 88.8582 92.1882 88.5963 91.8806 88.4051C91.573 88.2139 91.2197 88.1183 90.8206 88.1183C90.4299 88.1183 90.0765 88.2139 89.7606 88.4051C89.453 88.5963 89.2078 88.8582 89.0249 89.1907C88.8503 89.5233 88.763 89.9015 88.763 90.3255C88.763 90.7495 88.8503 91.132 89.0249 91.4728C89.2078 91.8054 89.453 92.0673 89.7606 92.2585C90.0765 92.4497 90.4299 92.5453 90.8206 92.5453ZM98.6262 93.8547C97.9528 93.8547 97.3542 93.7009 96.8305 93.3933C96.315 93.0774 95.9118 92.6534 95.6208 92.1213C95.3298 91.5809 95.1844 90.9782 95.1844 90.3131C95.1844 89.6314 95.3298 89.0286 95.6208 88.5048C95.9201 87.9811 96.3192 87.5695 96.818 87.2703C97.3168 86.9626 97.8822 86.8088 98.514 86.8088C99.0211 86.8088 99.4742 86.8961 99.8733 87.0707C100.272 87.2453 100.609 87.4864 100.883 87.794C101.158 88.0933 101.366 88.4383 101.507 88.8291C101.657 89.2198 101.731 89.6355 101.731 90.0761C101.731 90.1842 101.727 90.2965 101.719 90.4128C101.711 90.5292 101.694 90.6373 101.669 90.7371H96.2942V89.6147H100.871L100.198 90.126C100.281 89.7186 100.252 89.357 100.11 89.0411C99.9772 88.7168 99.7694 88.4633 99.4867 88.2804C99.2124 88.0892 98.8881 87.9935 98.514 87.9935C98.1399 87.9935 97.8073 88.0892 97.5164 88.2804C97.2254 88.4633 97.0009 88.7293 96.8429 89.0785C96.685 89.4194 96.6226 89.835 96.6559 90.3255C96.6143 90.7828 96.6767 91.1819 96.8429 91.5227C97.0175 91.8636 97.2586 92.1296 97.5662 92.3208C97.8822 92.5121 98.2396 92.6077 98.6387 92.6077C99.0461 92.6077 99.3911 92.5162 99.6738 92.3333C99.9647 92.1504 100.193 91.9135 100.36 91.6225L101.507 92.1837C101.374 92.4996 101.166 92.7864 100.883 93.0441C100.609 93.2935 100.277 93.4931 99.8858 93.6427C99.5033 93.7841 99.0835 93.8547 98.6262 93.8547ZM102.857 93.7051V86.9585H104.204V88.2804L104.042 88.1058C104.208 87.6818 104.474 87.3617 104.84 87.1455C105.206 86.9211 105.63 86.8088 106.112 86.8088C106.611 86.8088 107.052 86.9169 107.434 87.1331C107.816 87.3492 108.116 87.6485 108.332 88.031C108.548 88.4134 108.656 88.854 108.656 89.3528V93.7051H107.259V89.727C107.259 89.3861 107.197 89.0993 107.072 88.8665C106.948 88.6254 106.769 88.4425 106.536 88.3178C106.312 88.1848 106.054 88.1183 105.763 88.1183C105.472 88.1183 105.21 88.1848 104.977 88.3178C104.753 88.4425 104.578 88.6254 104.454 88.8665C104.329 89.1076 104.266 89.3944 104.266 89.727V93.7051H102.857ZM113.032 93.8547C112.384 93.8547 111.802 93.7009 111.287 93.3933C110.779 93.0774 110.376 92.6534 110.077 92.1213C109.786 91.5892 109.64 90.9906 109.64 90.3255C109.64 89.6605 109.79 89.0619 110.089 88.5298C110.389 87.9977 110.792 87.5779 111.299 87.2703C111.806 86.9626 112.38 86.8088 113.02 86.8088C113.56 86.8088 114.038 86.9169 114.454 87.1331C114.87 87.3492 115.198 87.6485 115.439 88.031L115.227 88.3552V84.2648H116.624V93.7051H115.29V92.3333L115.452 92.5952C115.219 93.0026 114.886 93.3143 114.454 93.5305C114.022 93.7466 113.548 93.8547 113.032 93.8547ZM113.17 92.5453C113.56 92.5453 113.91 92.4497 114.217 92.2585C114.533 92.0673 114.778 91.8054 114.953 91.4728C115.136 91.132 115.227 90.7495 115.227 90.3255C115.227 89.9015 115.136 89.5233 114.953 89.1907C114.778 88.8582 114.533 88.5963 114.217 88.4051C113.91 88.2139 113.56 88.1183 113.17 88.1183C112.779 88.1183 112.426 88.2139 112.11 88.4051C111.794 88.5963 111.548 88.8582 111.374 89.1907C111.199 89.5233 111.112 89.9015 111.112 90.3255C111.112 90.7495 111.199 91.132 111.374 91.4728C111.548 91.8054 111.79 92.0673 112.097 92.2585C112.413 92.4497 112.771 92.5453 113.17 92.5453ZM123.554 93.8547C123.03 93.8547 122.552 93.7466 122.12 93.5305C121.696 93.3143 121.368 93.0026 121.135 92.5952L121.297 92.3333V93.7051H119.95V84.2648H121.359V88.3552L121.135 88.031C121.384 87.6485 121.717 87.3492 122.133 87.1331C122.548 86.9169 123.022 86.8088 123.554 86.8088C124.194 86.8088 124.768 86.9626 125.275 87.2703C125.791 87.5779 126.194 87.9977 126.485 88.5298C126.784 89.0619 126.934 89.6605 126.934 90.3255C126.934 90.9906 126.784 91.5892 126.485 92.1213C126.194 92.6534 125.795 93.0774 125.288 93.3933C124.781 93.7009 124.203 93.8547 123.554 93.8547ZM123.417 92.5453C123.816 92.5453 124.169 92.4497 124.477 92.2585C124.785 92.0673 125.026 91.8054 125.2 91.4728C125.383 91.132 125.475 90.7495 125.475 90.3255C125.475 89.9015 125.383 89.5233 125.2 89.1907C125.026 88.8582 124.785 88.5963 124.477 88.4051C124.169 88.2139 123.816 88.1183 123.417 88.1183C123.026 88.1183 122.673 88.2139 122.357 88.4051C122.049 88.5963 121.804 88.8582 121.621 89.1907C121.447 89.5233 121.359 89.9015 121.359 90.3255C121.359 90.7495 121.447 91.132 121.621 91.4728C121.804 91.8054 122.049 92.0673 122.357 92.2585C122.673 92.4497 123.026 92.5453 123.417 92.5453ZM128.532 96.4611C128.366 96.4611 128.199 96.4445 128.033 96.4112C127.875 96.3863 127.73 96.3447 127.597 96.2865V95.0768C127.696 95.1018 127.817 95.1226 127.958 95.1392C128.1 95.1641 128.237 95.1766 128.37 95.1766C128.761 95.1766 129.047 95.0893 129.23 94.9147C129.422 94.7485 129.592 94.4866 129.742 94.1291L130.191 93.1065L130.166 94.2912L127.248 86.9585H128.756L130.914 92.5827H130.403L132.548 86.9585H134.069L131.088 94.4408C130.93 94.8399 130.731 95.1891 130.49 95.4884C130.257 95.796 129.979 96.0329 129.654 96.1992C129.338 96.3738 128.964 96.4611 128.532 96.4611ZM139.919 93.8547C139.246 93.8547 138.647 93.7009 138.124 93.3933C137.608 93.0774 137.197 92.6534 136.889 92.1213C136.59 91.5892 136.44 90.9865 136.44 90.3131C136.44 89.648 136.59 89.0494 136.889 88.5173C137.188 87.9852 137.6 87.5695 138.124 87.2703C138.647 86.9626 139.246 86.8088 139.919 86.8088C140.377 86.8088 140.805 86.892 141.204 87.0583C141.603 87.2162 141.948 87.4365 142.239 87.7192C142.538 88.0019 142.759 88.3303 142.9 88.7044L141.665 89.278C141.524 88.9288 141.295 88.6503 140.979 88.4425C140.672 88.2263 140.318 88.1183 139.919 88.1183C139.537 88.1183 139.192 88.2139 138.884 88.4051C138.585 88.588 138.348 88.8499 138.173 89.1907C137.999 89.5233 137.912 89.9015 137.912 90.3255C137.912 90.7495 137.999 91.132 138.173 91.4728C138.348 91.8054 138.585 92.0673 138.884 92.2585C139.192 92.4497 139.537 92.5453 139.919 92.5453C140.327 92.5453 140.68 92.4414 140.979 92.2335C141.287 92.0174 141.516 91.7306 141.665 91.3731L142.9 91.9592C142.767 92.3167 142.551 92.6409 142.251 92.9319C141.96 93.2146 141.615 93.439 141.216 93.6053C140.817 93.7716 140.385 93.8547 139.919 93.8547ZM145.987 93.8547C145.53 93.8547 145.127 93.7757 144.777 93.6178C144.437 93.4515 144.171 93.227 143.979 92.9444C143.788 92.6534 143.693 92.3125 143.693 91.9218C143.693 91.556 143.771 91.2276 143.929 90.9366C144.096 90.6456 144.349 90.4004 144.69 90.2008C145.031 90.0013 145.459 89.86 145.975 89.7768L148.319 89.3903V90.5001L146.249 90.8618C145.875 90.9283 145.601 91.0488 145.426 91.2234C145.251 91.3897 145.164 91.6059 145.164 91.8719C145.164 92.1296 145.26 92.3416 145.451 92.5079C145.65 92.6659 145.904 92.7448 146.212 92.7448C146.594 92.7448 146.927 92.6617 147.209 92.4954C147.5 92.3292 147.725 92.1088 147.883 91.8345C148.041 91.5518 148.12 91.2401 148.12 90.8992V89.1658C148.12 88.8332 147.995 88.563 147.745 88.3552C147.504 88.139 147.18 88.031 146.773 88.031C146.399 88.031 146.07 88.1307 145.788 88.3303C145.513 88.5215 145.31 88.7709 145.177 89.0785L144.004 88.4924C144.129 88.1598 144.333 87.8688 144.615 87.6194C144.898 87.3617 145.226 87.1622 145.601 87.0208C145.983 86.8795 146.386 86.8088 146.81 86.8088C147.342 86.8088 147.812 86.9086 148.219 87.1081C148.635 87.3077 148.955 87.5862 149.18 87.9437C149.412 88.2928 149.529 88.7002 149.529 89.1658V93.7051H148.182V92.483L148.469 92.5204C148.311 92.7947 148.107 93.0317 147.858 93.2312C147.617 93.4307 147.338 93.5845 147.022 93.6926C146.715 93.8007 146.37 93.8547 145.987 93.8547ZM153.723 93.7799C153.017 93.7799 152.468 93.5804 152.077 93.1813C151.686 92.7823 151.491 92.2211 151.491 91.4978V88.2305H150.306V86.9585H150.493C150.809 86.9585 151.055 86.867 151.229 86.6841C151.404 86.5012 151.491 86.2518 151.491 85.9359V85.4121H152.9V86.9585H154.434V88.2305H152.9V91.4354C152.9 91.6682 152.938 91.8677 153.013 92.034C153.087 92.192 153.208 92.3167 153.374 92.4081C153.54 92.4913 153.757 92.5328 154.023 92.5328C154.089 92.5328 154.164 92.5287 154.247 92.5204C154.33 92.5121 154.409 92.5037 154.484 92.4954V93.7051C154.368 93.7217 154.239 93.7383 154.097 93.755C153.956 93.7716 153.831 93.7799 153.723 93.7799ZM158.656 93.8547C157.982 93.8547 157.384 93.7009 156.86 93.3933C156.344 93.0774 155.941 92.6534 155.65 92.1213C155.359 91.5809 155.214 90.9782 155.214 90.3131C155.214 89.6314 155.359 89.0286 155.65 88.5048C155.949 87.9811 156.348 87.5695 156.847 87.2703C157.346 86.9626 157.911 86.8088 158.543 86.8088C159.05 86.8088 159.504 86.8961 159.903 87.0707C160.302 87.2453 160.638 87.4864 160.913 87.794C161.187 88.0933 161.395 88.4383 161.536 88.8291C161.686 89.2198 161.761 89.6355 161.761 90.0761C161.761 90.1842 161.757 90.2965 161.748 90.4128C161.74 90.5292 161.723 90.6373 161.698 90.7371H156.324V89.6147H160.9L160.227 90.126C160.31 89.7186 160.281 89.357 160.14 89.0411C160.007 88.7168 159.799 88.4633 159.516 88.2804C159.242 88.0892 158.917 87.9935 158.543 87.9935C158.169 87.9935 157.837 88.0892 157.546 88.2804C157.255 88.4633 157.03 88.7293 156.872 89.0785C156.714 89.4194 156.652 89.835 156.685 90.3255C156.644 90.7828 156.706 91.1819 156.872 91.5227C157.047 91.8636 157.288 92.1296 157.596 92.3208C157.911 92.5121 158.269 92.6077 158.668 92.6077C159.075 92.6077 159.42 92.5162 159.703 92.3333C159.994 92.1504 160.223 91.9135 160.389 91.6225L161.536 92.1837C161.403 92.4996 161.195 92.7864 160.913 93.0441C160.638 93.2935 160.306 93.4931 159.915 93.6427C159.533 93.7841 159.113 93.8547 158.656 93.8547ZM166.141 96.4486C165.651 96.4486 165.198 96.3696 164.782 96.2117C164.366 96.0537 164.009 95.8334 163.71 95.5507C163.41 95.2764 163.186 94.9521 163.036 94.578L164.333 94.0418C164.45 94.3577 164.662 94.6196 164.969 94.8274C165.285 95.0353 165.672 95.1392 166.129 95.1392C166.486 95.1392 166.807 95.0685 167.089 94.9272C167.372 94.7942 167.596 94.5946 167.763 94.3286C167.929 94.0709 168.012 93.7591 168.012 93.3933V91.8719L168.261 92.1587C168.029 92.591 167.704 92.9194 167.289 93.1439C166.881 93.3684 166.42 93.4806 165.904 93.4806C165.281 93.4806 164.72 93.3351 164.221 93.0441C163.722 92.7532 163.327 92.3541 163.036 91.847C162.754 91.3398 162.612 90.7703 162.612 90.1385C162.612 89.4983 162.754 88.9288 163.036 88.43C163.327 87.9312 163.718 87.5363 164.208 87.2453C164.699 86.9543 165.26 86.8088 165.892 86.8088C166.407 86.8088 166.865 86.9211 167.264 87.1455C167.671 87.3617 168.004 87.6776 168.261 88.0933L168.074 88.4425V86.9585H169.409V93.3933C169.409 93.9753 169.267 94.4949 168.985 94.9521C168.71 95.4177 168.328 95.7835 167.837 96.0495C167.347 96.3156 166.782 96.4486 166.141 96.4486ZM166.067 92.1712C166.441 92.1712 166.773 92.0839 167.064 91.9093C167.355 91.7264 167.584 91.4853 167.75 91.186C167.925 90.8784 168.012 90.5334 168.012 90.151C168.012 89.7685 167.925 89.4235 167.75 89.1159C167.576 88.8083 167.343 88.5672 167.052 88.3926C166.761 88.2097 166.432 88.1183 166.067 88.1183C165.684 88.1183 165.343 88.2097 165.044 88.3926C164.745 88.5672 164.508 88.8083 164.333 89.1159C164.167 89.4152 164.084 89.7602 164.084 90.151C164.084 90.5251 164.167 90.8659 164.333 91.1735C164.508 91.4812 164.745 91.7264 165.044 91.9093C165.343 92.0839 165.684 92.1712 166.067 92.1712ZM174.064 93.8547C173.415 93.8547 172.821 93.7009 172.28 93.3933C171.748 93.0857 171.324 92.6659 171.008 92.1338C170.692 91.6017 170.534 90.999 170.534 90.3255C170.534 89.6438 170.692 89.0411 171.008 88.5173C171.324 87.9852 171.748 87.5695 172.28 87.2703C172.812 86.9626 173.407 86.8088 174.064 86.8088C174.729 86.8088 175.323 86.9626 175.847 87.2703C176.379 87.5695 176.799 87.9852 177.106 88.5173C177.422 89.0411 177.58 89.6438 177.58 90.3255C177.58 91.0073 177.422 91.6142 177.106 92.1463C176.791 92.6783 176.367 93.0982 175.834 93.4058C175.302 93.7051 174.712 93.8547 174.064 93.8547ZM174.064 92.5453C174.463 92.5453 174.816 92.4497 175.124 92.2585C175.431 92.0673 175.672 91.8054 175.847 91.4728C176.03 91.132 176.121 90.7495 176.121 90.3255C176.121 89.9015 176.03 89.5233 175.847 89.1907C175.672 88.8582 175.431 88.5963 175.124 88.4051C174.816 88.2139 174.463 88.1183 174.064 88.1183C173.673 88.1183 173.32 88.2139 173.004 88.4051C172.696 88.5963 172.451 88.8582 172.268 89.1907C172.093 89.5233 172.006 89.9015 172.006 90.3255C172.006 90.7495 172.093 91.132 172.268 91.4728C172.451 91.8054 172.696 92.0673 173.004 92.2585C173.32 92.4497 173.673 92.5453 174.064 92.5453ZM178.707 93.7051V86.9585H180.054V88.3178L179.929 88.1183C180.078 87.6776 180.32 87.3617 180.652 87.1705C180.985 86.971 181.384 86.8712 181.849 86.8712H182.261V88.1557H181.675C181.209 88.1557 180.831 88.3012 180.54 88.5921C180.257 88.8748 180.116 89.2822 180.116 89.8143V93.7051H178.707ZM183.574 96.4611C183.408 96.4611 183.241 96.4445 183.075 96.4112C182.917 96.3863 182.772 96.3447 182.639 96.2865V95.0768C182.739 95.1018 182.859 95.1226 183 95.1392C183.142 95.1641 183.279 95.1766 183.412 95.1766C183.803 95.1766 184.089 95.0893 184.272 94.9147C184.464 94.7485 184.634 94.4866 184.784 94.1291L185.233 93.1065L185.208 94.2912L182.29 86.9585H183.799L185.956 92.5827H185.445L187.59 86.9585H189.111L186.131 94.4408C185.973 94.8399 185.773 95.1891 185.532 95.4884C185.299 95.796 185.021 96.0329 184.696 96.1992C184.38 96.3738 184.006 96.4611 183.574 96.4611Z" fill="#1A202C"/>
<path d="M272 208.869C274.168 208.869 275.252 208.869 276.116 209.333C276.841 209.723 277.493 210.425 277.829 211.176C278.229 212.071 278.156 213.08 278.009 215.099C277.143 226.977 273.812 238.545 268.229 249.064C267.28 250.852 266.806 251.746 265.991 252.291C265.307 252.749 264.381 252.996 263.56 252.941C262.581 252.874 261.663 252.298 259.827 251.145L256.05 248.773C254.202 247.613 253.279 247.033 252.807 246.29C252.365 245.596 252.179 244.922 252.2 244.099C252.223 243.219 252.763 242.158 253.842 240.034C257.795 232.252 260.232 223.788 261.022 215.096C261.238 212.724 261.345 211.537 261.794 210.78C262.213 210.072 262.729 209.601 263.473 209.247C264.267 208.869 265.358 208.869 267.54 208.869H272Z" fill="#7C5CFC"/>
<path d="M256.828 255.583C258.582 256.857 259.459 257.494 259.885 258.377C260.243 259.118 260.359 260.069 260.189 260.875C259.987 261.834 259.334 262.608 258.029 264.155C249.901 273.789 239.73 281.533 228.226 286.806C216.721 292.08 204.215 294.731 191.611 294.6C189.587 294.579 188.575 294.568 187.716 294.095C186.996 293.698 186.35 292.99 186.022 292.235C185.631 291.335 185.721 290.255 185.901 288.095L186.272 283.65C186.453 281.476 186.543 280.389 186.986 279.628C187.4 278.917 187.913 278.441 188.653 278.082C189.445 277.698 190.636 277.689 193.018 277.671C202.715 277.598 212.312 275.476 221.17 271.415C230.029 267.355 237.901 261.47 244.286 254.171C245.854 252.378 246.639 251.481 247.446 251.132C248.202 250.806 248.897 250.727 249.706 250.878C250.571 251.039 251.453 251.68 253.219 252.962L256.828 255.583Z" fill="#5CAFFC"/>
<path d="M180.515 287.461C180.188 289.604 180.025 290.675 179.436 291.459C178.942 292.117 178.149 292.657 177.356 292.875C176.411 293.136 175.424 292.911 173.451 292.461C164.852 290.502 156.607 287.228 149.008 282.754C147.264 281.727 146.392 281.214 145.883 280.376C145.455 279.672 145.249 278.736 145.341 277.919C145.45 276.944 146.066 276.052 147.299 274.269L149.835 270.6C151.076 268.805 151.696 267.907 152.458 267.469C153.172 267.058 153.853 266.902 154.674 266.959C155.552 267.021 156.589 267.607 158.663 268.778C164.107 271.853 169.945 274.171 176.015 275.669C178.327 276.24 179.484 276.525 180.164 277.083C180.801 277.604 181.19 278.186 181.427 278.974C181.681 279.816 181.517 280.894 181.188 283.051L180.515 287.461Z" fill="#A1A9FE"/>
<path d="M143.203 271.239C141.859 272.94 141.186 273.791 140.287 274.181C139.532 274.508 138.576 274.585 137.779 274.382C136.828 274.141 136.082 273.457 134.589 272.09C124.186 262.561 116.27 250.587 111.585 237.211C106.211 221.869 105.31 205.316 108.986 189.481C112.662 173.646 120.764 159.183 132.347 147.778C142.446 137.834 154.828 130.572 168.365 126.601C170.307 126.031 171.278 125.746 172.238 125.948C173.043 126.118 173.867 126.608 174.401 127.234C175.037 127.981 175.265 129.04 175.723 131.159L176.664 135.519C177.125 137.652 177.355 138.718 177.153 139.575C176.964 140.376 176.612 140.98 176.009 141.539C175.363 142.137 174.227 142.493 171.953 143.204C161.549 146.46 152.037 152.151 144.226 159.842C134.93 168.995 128.428 180.602 125.478 193.31C122.528 206.017 123.251 219.302 127.564 231.614C131.187 241.959 137.219 251.259 145.125 258.766C146.853 260.406 147.716 261.226 148.032 262.047C148.328 262.815 148.378 263.513 148.194 264.315C147.998 265.173 147.322 266.028 145.969 267.74L143.203 271.239Z" fill="#EB7CA6"/>
<path d="M181.575 130.123C181.277 127.976 181.129 126.902 181.47 125.983C181.756 125.211 182.361 124.468 183.059 124.032C183.891 123.513 184.901 123.447 186.921 123.315C205.325 122.114 223.634 126.884 239.113 136.912C240.811 138.012 241.661 138.563 242.133 139.422C242.53 140.143 242.696 141.087 242.569 141.9C242.419 142.869 241.765 143.733 240.457 145.463L237.766 149.02C236.45 150.76 235.792 151.63 235.011 152.036C234.281 152.415 233.593 152.542 232.776 152.45C231.901 152.351 230.89 151.721 228.868 150.462C217.018 143.083 203.196 139.482 189.252 140.141C186.872 140.254 185.682 140.31 184.871 139.97C184.112 139.652 183.574 139.205 183.122 138.518C182.638 137.783 182.488 136.702 182.188 134.541L181.575 130.123Z" fill="#FFACC8"/>
<path d="M244.64 148.855C246.062 147.219 246.773 146.4 247.69 146.053C248.459 145.761 249.417 145.728 250.204 145.968C251.143 146.253 251.856 146.97 253.284 148.405C266.291 161.48 274.738 178.41 277.363 196.666C277.651 198.669 277.795 199.671 277.458 200.592C277.176 201.365 276.574 202.111 275.878 202.55C275.049 203.074 273.967 203.15 271.805 203.301L267.355 203.614C265.179 203.767 264.091 203.843 263.272 203.522C262.506 203.221 261.958 202.787 261.49 202.11C260.989 201.386 260.799 200.21 260.418 197.858C258.184 184.078 251.808 171.298 242.141 161.227C240.491 159.508 239.666 158.648 239.389 157.813C239.13 157.032 239.112 156.333 239.333 155.54C239.568 154.693 240.284 153.869 241.715 152.222L244.64 148.855Z" fill="#4120A9"/>
<rect x="78.7059" y="328.896" width="9.35294" height="9.35294" rx="4.67647" fill="#EB7CA6"/>
<path d="M98.132 338.117V331.149H102.724V332.131H99.2357V334.133H102.537V335.115H99.2357V337.135H102.724V338.117H98.132ZM103.459 338.117V333.057H104.469V334.152L104.339 333.983C104.445 333.64 104.638 333.381 104.918 333.207C105.199 333.032 105.52 332.945 105.882 332.945C106.287 332.945 106.646 333.054 106.957 333.272C107.275 333.484 107.487 333.768 107.593 334.123L107.294 334.152C107.444 333.746 107.671 333.444 107.977 333.244C108.289 333.045 108.644 332.945 109.043 332.945C109.392 332.945 109.707 333.026 109.988 333.188C110.275 333.35 110.502 333.575 110.67 333.862C110.839 334.148 110.923 334.476 110.923 334.844V338.117H109.866V335.134C109.866 334.878 109.819 334.663 109.726 334.488C109.639 334.307 109.514 334.17 109.352 334.077C109.196 333.977 109.012 333.927 108.8 333.927C108.588 333.927 108.401 333.977 108.239 334.077C108.077 334.17 107.949 334.307 107.855 334.488C107.762 334.669 107.715 334.884 107.715 335.134V338.117H106.667V335.134C106.667 334.878 106.621 334.663 106.527 334.488C106.44 334.307 106.315 334.17 106.153 334.077C105.997 333.977 105.81 333.927 105.592 333.927C105.38 333.927 105.193 333.977 105.031 334.077C104.869 334.17 104.741 334.307 104.647 334.488C104.56 334.669 104.516 334.884 104.516 335.134V338.117H103.459ZM111.867 339.988V333.057H112.877V334.105L112.756 333.862C112.943 333.575 113.192 333.35 113.504 333.188C113.816 333.026 114.171 332.945 114.57 332.945C115.05 332.945 115.48 333.06 115.861 333.291C116.247 333.522 116.55 333.837 116.768 334.236C116.993 334.635 117.105 335.084 117.105 335.583C117.105 336.081 116.993 336.53 116.768 336.929C116.55 337.328 116.251 337.646 115.87 337.883C115.49 338.114 115.056 338.229 114.57 338.229C114.177 338.229 113.819 338.148 113.495 337.986C113.177 337.824 112.93 337.59 112.756 337.285L112.924 337.088V339.988H111.867ZM114.467 337.247C114.767 337.247 115.032 337.176 115.262 337.032C115.493 336.889 115.674 336.692 115.805 336.443C115.942 336.187 116.01 335.901 116.01 335.583C116.01 335.265 115.942 334.981 115.805 334.731C115.674 334.482 115.493 334.286 115.262 334.142C115.032 333.999 114.767 333.927 114.467 333.927C114.174 333.927 113.909 333.999 113.672 334.142C113.442 334.286 113.258 334.482 113.12 334.731C112.989 334.981 112.924 335.265 112.924 335.583C112.924 335.901 112.989 336.187 113.12 336.443C113.258 336.692 113.442 336.889 113.672 337.032C113.909 337.176 114.174 337.247 114.467 337.247ZM117.946 338.117V331.037H119.003V338.117H117.946ZM122.492 338.229C122.006 338.229 121.56 338.114 121.155 337.883C120.756 337.653 120.438 337.338 120.201 336.939C119.964 336.54 119.846 336.088 119.846 335.583C119.846 335.071 119.964 334.619 120.201 334.226C120.438 333.827 120.756 333.516 121.155 333.291C121.554 333.06 122 332.945 122.492 332.945C122.991 332.945 123.437 333.06 123.83 333.291C124.229 333.516 124.544 333.827 124.775 334.226C125.011 334.619 125.13 335.071 125.13 335.583C125.13 336.094 125.011 336.549 124.775 336.948C124.538 337.347 124.22 337.662 123.821 337.893C123.421 338.117 122.979 338.229 122.492 338.229ZM122.492 337.247C122.792 337.247 123.057 337.176 123.287 337.032C123.518 336.889 123.699 336.692 123.83 336.443C123.967 336.187 124.036 335.901 124.036 335.583C124.036 335.265 123.967 334.981 123.83 334.731C123.699 334.482 123.518 334.286 123.287 334.142C123.057 333.999 122.792 333.927 122.492 333.927C122.199 333.927 121.934 333.999 121.697 334.142C121.467 334.286 121.283 334.482 121.146 334.731C121.015 334.981 120.949 335.265 120.949 335.583C120.949 335.901 121.015 336.187 121.146 336.443C121.283 336.692 121.467 336.889 121.697 337.032C121.934 337.176 122.199 337.247 122.492 337.247ZM126.332 340.184C126.208 340.184 126.083 340.172 125.958 340.147C125.84 340.128 125.731 340.097 125.631 340.053V339.146C125.706 339.165 125.796 339.18 125.902 339.193C126.008 339.211 126.111 339.221 126.211 339.221C126.504 339.221 126.719 339.155 126.856 339.024C127 338.9 127.127 338.703 127.24 338.435L127.576 337.668L127.558 338.557L125.369 333.057H126.501L128.119 337.275H127.735L129.344 333.057H130.485L128.25 338.669C128.131 338.968 127.982 339.23 127.801 339.455C127.626 339.685 127.417 339.863 127.174 339.988C126.937 340.119 126.657 340.184 126.332 340.184ZM133.306 338.229C132.801 338.229 132.352 338.114 131.959 337.883C131.572 337.646 131.27 337.328 131.052 336.929C130.833 336.524 130.724 336.072 130.724 335.573C130.724 335.062 130.833 334.61 131.052 334.217C131.276 333.824 131.575 333.516 131.949 333.291C132.324 333.06 132.748 332.945 133.221 332.945C133.602 332.945 133.942 333.01 134.241 333.141C134.54 333.272 134.793 333.453 134.998 333.684C135.204 333.908 135.36 334.167 135.466 334.46C135.578 334.753 135.634 335.065 135.634 335.395C135.634 335.477 135.631 335.561 135.625 335.648C135.619 335.735 135.606 335.816 135.588 335.891H131.557V335.049H134.989L134.484 335.433C134.546 335.127 134.525 334.856 134.419 334.619C134.319 334.376 134.163 334.186 133.951 334.049C133.745 333.905 133.502 333.834 133.221 333.834C132.941 333.834 132.691 333.905 132.473 334.049C132.255 334.186 132.087 334.385 131.968 334.647C131.85 334.903 131.803 335.215 131.828 335.583C131.797 335.925 131.843 336.225 131.968 336.48C132.099 336.736 132.28 336.936 132.511 337.079C132.748 337.222 133.016 337.294 133.315 337.294C133.62 337.294 133.879 337.226 134.091 337.088C134.309 336.951 134.481 336.773 134.606 336.555L135.466 336.976C135.366 337.213 135.21 337.428 134.998 337.621C134.793 337.809 134.543 337.958 134.25 338.07C133.963 338.176 133.649 338.229 133.306 338.229ZM138.855 338.229C138.349 338.229 137.901 338.114 137.508 337.883C137.121 337.646 136.819 337.328 136.6 336.929C136.382 336.524 136.273 336.072 136.273 335.573C136.273 335.062 136.382 334.61 136.6 334.217C136.825 333.824 137.124 333.516 137.498 333.291C137.872 333.06 138.296 332.945 138.77 332.945C139.151 332.945 139.491 333.01 139.79 333.141C140.089 333.272 140.342 333.453 140.547 333.684C140.753 333.908 140.909 334.167 141.015 334.46C141.127 334.753 141.183 335.065 141.183 335.395C141.183 335.477 141.18 335.561 141.174 335.648C141.168 335.735 141.155 335.816 141.137 335.891H137.106V335.049H140.538L140.033 335.433C140.095 335.127 140.074 334.856 139.968 334.619C139.868 334.376 139.712 334.186 139.5 334.049C139.294 333.905 139.051 333.834 138.77 333.834C138.49 333.834 138.24 333.905 138.022 334.049C137.804 334.186 137.636 334.385 137.517 334.647C137.399 334.903 137.352 335.215 137.377 335.583C137.346 335.925 137.392 336.225 137.517 336.48C137.648 336.736 137.829 336.936 138.06 337.079C138.296 337.222 138.565 337.294 138.864 337.294C139.169 337.294 139.428 337.226 139.64 337.088C139.858 336.951 140.03 336.773 140.155 336.555L141.015 336.976C140.915 337.213 140.759 337.428 140.547 337.621C140.342 337.809 140.092 337.958 139.799 338.07C139.512 338.176 139.197 338.229 138.855 338.229ZM143.898 338.229C143.381 338.229 142.926 338.102 142.533 337.846C142.146 337.59 141.875 337.247 141.719 336.817L142.533 336.434C142.67 336.72 142.857 336.948 143.094 337.116C143.337 337.285 143.605 337.369 143.898 337.369C144.148 337.369 144.35 337.313 144.506 337.201C144.662 337.088 144.74 336.936 144.74 336.742C144.74 336.618 144.706 336.518 144.637 336.443C144.569 336.362 144.481 336.296 144.375 336.247C144.276 336.197 144.173 336.159 144.067 336.134L143.272 335.91C142.835 335.785 142.508 335.598 142.29 335.349C142.078 335.093 141.972 334.797 141.972 334.46C141.972 334.155 142.05 333.89 142.206 333.665C142.361 333.434 142.577 333.257 142.851 333.132C143.125 333.007 143.434 332.945 143.777 332.945C144.238 332.945 144.65 333.06 145.011 333.291C145.373 333.516 145.629 333.83 145.778 334.236L144.965 334.619C144.865 334.376 144.706 334.183 144.488 334.039C144.276 333.896 144.036 333.824 143.767 333.824C143.537 333.824 143.353 333.88 143.216 333.993C143.078 334.099 143.01 334.239 143.01 334.413C143.01 334.532 143.041 334.632 143.103 334.713C143.166 334.788 143.247 334.85 143.347 334.9C143.446 334.943 143.549 334.981 143.655 335.012L144.478 335.255C144.896 335.374 145.217 335.561 145.442 335.816C145.666 336.066 145.778 336.365 145.778 336.714C145.778 337.014 145.697 337.279 145.535 337.509C145.379 337.734 145.161 337.911 144.88 338.042C144.6 338.167 144.273 338.229 143.898 338.229ZM150.619 338.229C150.182 338.229 149.777 338.148 149.403 337.986C149.029 337.818 148.711 337.59 148.449 337.303C148.187 337.017 147.994 336.686 147.869 336.312L148.804 335.919C148.973 336.349 149.219 336.68 149.543 336.911C149.867 337.141 150.241 337.257 150.665 337.257C150.915 337.257 151.133 337.219 151.32 337.144C151.507 337.063 151.651 336.951 151.75 336.808C151.856 336.664 151.909 336.499 151.909 336.312C151.909 336.056 151.838 335.854 151.694 335.704C151.551 335.554 151.339 335.436 151.058 335.349L149.749 334.937C149.225 334.775 148.826 334.529 148.552 334.198C148.277 333.862 148.14 333.469 148.14 333.02C148.14 332.627 148.237 332.284 148.43 331.991C148.623 331.692 148.888 331.458 149.225 331.29C149.568 331.121 149.958 331.037 150.394 331.037C150.812 331.037 151.192 331.112 151.535 331.261C151.878 331.405 152.171 331.604 152.414 331.86C152.664 332.116 152.845 332.412 152.957 332.749L152.04 333.151C151.903 332.783 151.688 332.499 151.395 332.3C151.108 332.1 150.775 332 150.394 332C150.164 332 149.961 332.041 149.786 332.122C149.612 332.197 149.475 332.309 149.375 332.459C149.281 332.602 149.234 332.77 149.234 332.964C149.234 333.188 149.306 333.388 149.45 333.562C149.593 333.737 149.811 333.868 150.104 333.955L151.32 334.339C151.875 334.507 152.293 334.75 152.573 335.068C152.854 335.38 152.994 335.77 152.994 336.237C152.994 336.624 152.891 336.967 152.686 337.266C152.486 337.565 152.209 337.802 151.853 337.977C151.498 338.145 151.086 338.229 150.619 338.229ZM155.367 338.229C155.024 338.229 154.722 338.17 154.46 338.052C154.204 337.927 154.005 337.759 153.861 337.547C153.718 337.328 153.646 337.073 153.646 336.78C153.646 336.505 153.705 336.259 153.824 336.041C153.949 335.823 154.139 335.639 154.394 335.489C154.65 335.339 154.971 335.233 155.358 335.171L157.116 334.881V335.713L155.564 335.985C155.283 336.035 155.077 336.125 154.946 336.256C154.815 336.381 154.75 336.543 154.75 336.742C154.75 336.936 154.822 337.095 154.965 337.219C155.115 337.338 155.305 337.397 155.536 337.397C155.822 337.397 156.072 337.335 156.284 337.21C156.502 337.085 156.67 336.92 156.789 336.714C156.907 336.502 156.967 336.268 156.967 336.013V334.713C156.967 334.463 156.873 334.261 156.686 334.105C156.505 333.943 156.262 333.862 155.956 333.862C155.676 333.862 155.43 333.936 155.218 334.086C155.012 334.229 154.859 334.417 154.759 334.647L153.88 334.208C153.974 333.958 154.126 333.74 154.338 333.553C154.55 333.36 154.797 333.21 155.077 333.104C155.364 332.998 155.666 332.945 155.984 332.945C156.384 332.945 156.736 333.02 157.041 333.169C157.353 333.319 157.593 333.528 157.762 333.796C157.936 334.058 158.023 334.364 158.023 334.713V338.117H157.013V337.201L157.228 337.229C157.11 337.434 156.957 337.612 156.77 337.762C156.589 337.911 156.38 338.027 156.143 338.108C155.913 338.189 155.654 338.229 155.367 338.229ZM159.072 338.117V331.037H160.129V338.117H159.072ZM162.693 338.229C162.35 338.229 162.047 338.17 161.786 338.052C161.53 337.927 161.33 337.759 161.187 337.547C161.044 337.328 160.972 337.073 160.972 336.78C160.972 336.505 161.031 336.259 161.15 336.041C161.274 335.823 161.464 335.639 161.72 335.489C161.976 335.339 162.297 335.233 162.683 335.171L164.442 334.881V335.713L162.889 335.985C162.609 336.035 162.403 336.125 162.272 336.256C162.141 336.381 162.075 336.543 162.075 336.742C162.075 336.936 162.147 337.095 162.291 337.219C162.44 337.338 162.63 337.397 162.861 337.397C163.148 337.397 163.397 337.335 163.609 337.21C163.828 337.085 163.996 336.92 164.114 336.714C164.233 336.502 164.292 336.268 164.292 336.013V334.713C164.292 334.463 164.199 334.261 164.012 334.105C163.831 333.943 163.588 333.862 163.282 333.862C163.001 333.862 162.755 333.936 162.543 334.086C162.337 334.229 162.185 334.417 162.085 334.647L161.206 334.208C161.299 333.958 161.452 333.74 161.664 333.553C161.876 333.36 162.122 333.21 162.403 333.104C162.69 332.998 162.992 332.945 163.31 332.945C163.709 332.945 164.061 333.02 164.367 333.169C164.679 333.319 164.919 333.528 165.087 333.796C165.262 334.058 165.349 334.364 165.349 334.713V338.117H164.339V337.201L164.554 337.229C164.436 337.434 164.283 337.612 164.096 337.762C163.915 337.911 163.706 338.027 163.469 338.108C163.238 338.189 162.98 338.229 162.693 338.229ZM166.398 338.117V333.057H167.408V334.077L167.314 333.927C167.427 333.597 167.607 333.36 167.857 333.216C168.106 333.067 168.405 332.992 168.755 332.992H169.063V333.955H168.624C168.275 333.955 167.991 334.064 167.773 334.282C167.561 334.494 167.455 334.8 167.455 335.199V338.117H166.398ZM170.048 340.184C169.923 340.184 169.799 340.172 169.674 340.147C169.556 340.128 169.446 340.097 169.347 340.053V339.146C169.422 339.165 169.512 339.18 169.618 339.193C169.724 339.211 169.827 339.221 169.927 339.221C170.22 339.221 170.435 339.155 170.572 339.024C170.715 338.9 170.843 338.703 170.955 338.435L171.292 337.668L171.273 338.557L169.085 333.057H170.217L171.835 337.275H171.451L173.06 333.057H174.201L171.966 338.669C171.847 338.968 171.697 339.23 171.517 339.455C171.342 339.685 171.133 339.863 170.89 339.988C170.653 340.119 170.372 340.184 170.048 340.184Z" fill="#596780"/>
<path d="M246.071 337.91C245.561 337.91 245.089 337.816 244.652 337.627C244.216 337.43 243.845 337.165 243.539 336.83C243.234 336.495 243.008 336.11 242.863 335.673L243.954 335.215C244.15 335.717 244.437 336.103 244.816 336.372C245.194 336.641 245.631 336.775 246.125 336.775C246.416 336.775 246.671 336.732 246.889 336.644C247.107 336.55 247.275 336.419 247.391 336.252C247.515 336.084 247.576 335.892 247.576 335.673C247.576 335.375 247.493 335.139 247.325 334.964C247.158 334.789 246.911 334.651 246.583 334.549L245.056 334.069C244.445 333.88 243.979 333.593 243.659 333.207C243.339 332.814 243.179 332.356 243.179 331.832C243.179 331.374 243.292 330.974 243.517 330.632C243.743 330.283 244.052 330.01 244.445 329.814C244.845 329.617 245.3 329.519 245.809 329.519C246.296 329.519 246.74 329.606 247.14 329.781C247.54 329.948 247.882 330.181 248.166 330.479C248.457 330.778 248.668 331.123 248.799 331.516L247.729 331.985C247.569 331.556 247.318 331.225 246.976 330.992C246.642 330.759 246.252 330.643 245.809 330.643C245.54 330.643 245.303 330.69 245.099 330.785C244.896 330.872 244.736 331.003 244.619 331.178C244.51 331.345 244.456 331.541 244.456 331.767C244.456 332.029 244.539 332.262 244.707 332.465C244.874 332.669 245.129 332.822 245.47 332.924L246.889 333.371C247.536 333.567 248.024 333.851 248.351 334.222C248.679 334.586 248.842 335.04 248.842 335.586C248.842 336.037 248.722 336.437 248.482 336.786C248.249 337.136 247.926 337.412 247.511 337.616C247.096 337.812 246.616 337.91 246.071 337.91ZM245.569 338.87V328.559H246.442V338.87H245.569ZM252.666 337.91C252.099 337.91 251.601 337.801 251.171 337.583C250.75 337.357 250.422 337.059 250.189 336.688C249.957 336.31 249.84 335.892 249.84 335.433C249.84 334.91 249.982 334.458 250.266 334.08C250.557 333.695 250.964 333.415 251.488 333.24L251.433 333.567C251.048 333.422 250.742 333.178 250.517 332.836C250.299 332.487 250.189 332.105 250.189 331.691C250.189 331.276 250.295 330.905 250.506 330.578C250.724 330.25 251.019 329.992 251.39 329.803C251.768 329.614 252.194 329.519 252.666 329.519C253.146 329.519 253.572 329.614 253.943 329.803C254.314 329.985 254.605 330.239 254.816 330.567C255.034 330.894 255.143 331.269 255.143 331.691C255.143 332.12 255.031 332.505 254.805 332.847C254.587 333.182 254.289 333.422 253.91 333.567L253.856 333.24C254.38 333.422 254.787 333.702 255.078 334.08C255.369 334.458 255.514 334.91 255.514 335.433C255.514 335.892 255.394 336.31 255.154 336.688C254.921 337.059 254.59 337.357 254.161 337.583C253.732 337.801 253.234 337.91 252.666 337.91ZM252.666 336.819C252.979 336.819 253.252 336.761 253.485 336.644C253.718 336.521 253.899 336.353 254.03 336.143C254.161 335.932 254.227 335.684 254.227 335.401C254.227 335.117 254.161 334.869 254.03 334.659C253.899 334.448 253.718 334.284 253.485 334.168C253.252 334.051 252.979 333.993 252.666 333.993C252.361 333.993 252.092 334.051 251.859 334.168C251.626 334.284 251.444 334.448 251.313 334.659C251.182 334.869 251.117 335.117 251.117 335.401C251.117 335.684 251.182 335.932 251.313 336.143C251.444 336.353 251.626 336.521 251.859 336.644C252.092 336.761 252.361 336.819 252.666 336.819ZM252.666 332.902C252.899 332.902 253.103 332.854 253.277 332.76C253.459 332.658 253.601 332.52 253.703 332.345C253.805 332.171 253.856 331.974 253.856 331.756C253.856 331.53 253.805 331.334 253.703 331.167C253.601 330.992 253.459 330.858 253.277 330.763C253.103 330.661 252.899 330.61 252.666 330.61C252.441 330.61 252.237 330.661 252.055 330.763C251.873 330.858 251.732 330.992 251.63 331.167C251.528 331.334 251.477 331.53 251.477 331.756C251.477 331.974 251.528 332.171 251.63 332.345C251.732 332.52 251.873 332.658 252.055 332.76C252.237 332.854 252.441 332.902 252.666 332.902ZM257.16 337.779V336.361H258.415V337.779H257.16ZM263.377 337.91C262.729 337.91 262.162 337.736 261.674 337.386C261.187 337.03 260.805 336.539 260.529 335.913C260.26 335.281 260.125 334.546 260.125 333.709C260.125 332.865 260.26 332.131 260.529 331.505C260.805 330.879 261.183 330.392 261.664 330.043C262.151 329.694 262.718 329.519 263.366 329.519C264.013 329.519 264.577 329.694 265.057 330.043C265.544 330.392 265.923 330.883 266.192 331.516C266.468 332.142 266.607 332.873 266.607 333.709C266.607 334.546 266.472 335.281 266.203 335.913C265.934 336.539 265.555 337.03 265.068 337.386C264.588 337.736 264.024 337.91 263.377 337.91ZM263.377 336.732C263.777 336.732 264.122 336.608 264.413 336.361C264.704 336.113 264.93 335.764 265.09 335.313C265.25 334.862 265.33 334.328 265.33 333.709C265.33 333.091 265.25 332.556 265.09 332.105C264.93 331.654 264.704 331.305 264.413 331.058C264.122 330.81 263.773 330.687 263.366 330.687C262.966 330.687 262.62 330.81 262.329 331.058C262.038 331.305 261.813 331.654 261.653 332.105C261.493 332.556 261.413 333.091 261.413 333.709C261.413 334.32 261.493 334.855 261.653 335.313C261.813 335.764 262.038 336.113 262.329 336.361C262.627 336.608 262.977 336.732 263.377 336.732ZM270.969 337.91C270.322 337.91 269.754 337.736 269.267 337.386C268.78 337.03 268.398 336.539 268.121 335.913C267.852 335.281 267.718 334.546 267.718 333.709C267.718 332.865 267.852 332.131 268.121 331.505C268.398 330.879 268.776 330.392 269.256 330.043C269.744 329.694 270.311 329.519 270.958 329.519C271.606 329.519 272.17 329.694 272.65 330.043C273.137 330.392 273.515 330.883 273.785 331.516C274.061 332.142 274.199 332.873 274.199 333.709C274.199 334.546 274.065 335.281 273.795 335.913C273.526 336.539 273.148 337.03 272.661 337.386C272.181 337.736 271.617 337.91 270.969 337.91ZM270.969 336.732C271.369 336.732 271.715 336.608 272.006 336.361C272.297 336.113 272.522 335.764 272.682 335.313C272.842 334.862 272.923 334.328 272.923 333.709C272.923 333.091 272.842 332.556 272.682 332.105C272.522 331.654 272.297 331.305 272.006 331.058C271.715 330.81 271.366 330.687 270.958 330.687C270.558 330.687 270.213 330.81 269.922 331.058C269.631 331.305 269.405 331.654 269.245 332.105C269.085 332.556 269.005 333.091 269.005 333.709C269.005 334.32 269.085 334.855 269.245 335.313C269.405 335.764 269.631 336.113 269.922 336.361C270.22 336.608 270.569 336.732 270.969 336.732ZM278.562 337.91C277.915 337.91 277.347 337.736 276.86 337.386C276.372 337.03 275.99 336.539 275.714 335.913C275.445 335.281 275.31 334.546 275.31 333.709C275.31 332.865 275.445 332.131 275.714 331.505C275.99 330.879 276.369 330.392 276.849 330.043C277.336 329.694 277.904 329.519 278.551 329.519C279.198 329.519 279.762 329.694 280.242 330.043C280.73 330.392 281.108 330.883 281.377 331.516C281.654 332.142 281.792 332.873 281.792 333.709C281.792 334.546 281.657 335.281 281.388 335.913C281.119 336.539 280.741 337.03 280.253 337.386C279.773 337.736 279.209 337.91 278.562 337.91ZM278.562 336.732C278.962 336.732 279.308 336.608 279.599 336.361C279.89 336.113 280.115 335.764 280.275 335.313C280.435 334.862 280.515 334.328 280.515 333.709C280.515 333.091 280.435 332.556 280.275 332.105C280.115 331.654 279.89 331.305 279.599 331.058C279.308 330.81 278.958 330.687 278.551 330.687C278.151 330.687 277.805 330.81 277.514 331.058C277.223 331.305 276.998 331.654 276.838 332.105C276.678 332.556 276.598 333.091 276.598 333.709C276.598 334.32 276.678 334.855 276.838 335.313C276.998 335.764 277.223 336.113 277.514 336.361C277.813 336.608 278.162 336.732 278.562 336.732ZM283.503 337.779V336.361H284.758V337.779H283.503ZM289.719 337.91C289.072 337.91 288.504 337.736 288.017 337.386C287.53 337.03 287.148 336.539 286.871 335.913C286.602 335.281 286.468 334.546 286.468 333.709C286.468 332.865 286.602 332.131 286.871 331.505C287.148 330.879 287.526 330.392 288.006 330.043C288.493 329.694 289.061 329.519 289.708 329.519C290.356 329.519 290.92 329.694 291.4 330.043C291.887 330.392 292.265 330.883 292.534 331.516C292.811 332.142 292.949 332.873 292.949 333.709C292.949 334.546 292.815 335.281 292.545 335.913C292.276 336.539 291.898 337.03 291.411 337.386C290.93 337.736 290.367 337.91 289.719 337.91ZM289.719 336.732C290.119 336.732 290.465 336.608 290.756 336.361C291.047 336.113 291.272 335.764 291.432 335.313C291.592 334.862 291.672 334.328 291.672 333.709C291.672 333.091 291.592 332.556 291.432 332.105C291.272 331.654 291.047 331.305 290.756 331.058C290.465 330.81 290.116 330.687 289.708 330.687C289.308 330.687 288.963 330.81 288.672 331.058C288.381 331.305 288.155 331.654 287.995 332.105C287.835 332.556 287.755 333.091 287.755 333.709C287.755 334.32 287.835 334.855 287.995 335.313C288.155 335.764 288.381 336.113 288.672 336.361C288.97 336.608 289.319 336.732 289.719 336.732ZM297.312 337.91C296.664 337.91 296.097 337.736 295.61 337.386C295.122 337.03 294.74 336.539 294.464 335.913C294.195 335.281 294.06 334.546 294.06 333.709C294.06 332.865 294.195 332.131 294.464 331.505C294.74 330.879 295.119 330.392 295.599 330.043C296.086 329.694 296.654 329.519 297.301 329.519C297.948 329.519 298.512 329.694 298.992 330.043C299.48 330.392 299.858 330.883 300.127 331.516C300.404 332.142 300.542 332.873 300.542 333.709C300.542 334.546 300.407 335.281 300.138 335.913C299.869 336.539 299.491 337.03 299.003 337.386C298.523 337.736 297.959 337.91 297.312 337.91ZM297.312 336.732C297.712 336.732 298.057 336.608 298.348 336.361C298.639 336.113 298.865 335.764 299.025 335.313C299.185 334.862 299.265 334.328 299.265 333.709C299.265 333.091 299.185 332.556 299.025 332.105C298.865 331.654 298.639 331.305 298.348 331.058C298.057 330.81 297.708 330.687 297.301 330.687C296.901 330.687 296.555 330.81 296.264 331.058C295.973 331.305 295.748 331.654 295.588 332.105C295.428 332.556 295.348 333.091 295.348 333.709C295.348 334.32 295.428 334.855 295.588 335.313C295.748 335.764 295.973 336.113 296.264 336.361C296.563 336.608 296.912 336.732 297.312 336.732Z" fill="#1A202C"/>
<path d="M148.94 226.416C148.055 226.416 147.232 226.254 146.471 225.93C145.723 225.605 145.074 225.156 144.526 224.583C143.989 223.997 143.597 223.317 143.347 222.544L145.461 221.627C145.798 222.425 146.284 223.055 146.92 223.516C147.556 223.965 148.273 224.19 149.071 224.19C149.52 224.19 149.907 224.121 150.231 223.984C150.568 223.834 150.823 223.635 150.998 223.386C151.185 223.136 151.279 222.837 151.279 222.488C151.279 222.076 151.154 221.739 150.904 221.478C150.667 221.203 150.306 220.991 149.819 220.842L147.144 219.981C146.06 219.644 145.243 219.139 144.694 218.466C144.145 217.792 143.871 217.001 143.871 216.09C143.871 215.292 144.064 214.588 144.451 213.976C144.85 213.365 145.399 212.892 146.097 212.555C146.808 212.206 147.618 212.031 148.529 212.031C149.364 212.031 150.131 212.181 150.83 212.48C151.528 212.767 152.127 213.172 152.625 213.696C153.137 214.207 153.517 214.812 153.766 215.51L151.671 216.446C151.397 215.747 150.985 215.211 150.437 214.837C149.888 214.45 149.252 214.257 148.529 214.257C148.105 214.257 147.731 214.332 147.406 214.482C147.082 214.619 146.826 214.818 146.639 215.08C146.465 215.33 146.378 215.629 146.378 215.978C146.378 216.365 146.502 216.708 146.752 217.007C147.001 217.294 147.381 217.518 147.893 217.68L150.455 218.485C151.565 218.846 152.395 219.345 152.943 219.981C153.505 220.617 153.785 221.403 153.785 222.338C153.785 223.136 153.579 223.841 153.168 224.452C152.756 225.063 152.189 225.543 151.466 225.892C150.742 226.241 149.901 226.416 148.94 226.416ZM148.042 228.062V210.385H149.632V228.062H148.042ZM157.404 226.191V214.425H154.71V212.256H159.948V226.191H157.404ZM162.909 226.191L167.642 220.093L168.072 220.542C167.885 220.679 167.704 220.792 167.53 220.879C167.355 220.966 167.168 221.029 166.969 221.066C166.769 221.103 166.557 221.122 166.333 221.122C165.485 221.122 164.73 220.929 164.069 220.542C163.408 220.156 162.885 219.632 162.498 218.971C162.124 218.298 161.937 217.537 161.937 216.689C161.937 215.791 162.143 214.993 162.554 214.294C162.978 213.596 163.552 213.047 164.275 212.648C165.011 212.237 165.846 212.031 166.782 212.031C167.729 212.031 168.565 212.231 169.288 212.63C170.011 213.029 170.579 213.577 170.99 214.276C171.414 214.962 171.626 215.754 171.626 216.651C171.626 217.1 171.577 217.549 171.477 217.998C171.377 218.447 171.196 218.927 170.934 219.439C170.685 219.937 170.323 220.505 169.849 221.141L165.959 226.191H162.909ZM166.782 218.99C167.218 218.99 167.605 218.896 167.941 218.709C168.291 218.51 168.565 218.235 168.764 217.886C168.964 217.524 169.064 217.119 169.064 216.67C169.064 216.196 168.958 215.785 168.746 215.436C168.546 215.086 168.278 214.812 167.941 214.612C167.605 214.413 167.218 214.313 166.782 214.313C166.358 214.313 165.971 214.413 165.622 214.612C165.273 214.812 164.992 215.086 164.78 215.436C164.581 215.785 164.481 216.196 164.481 216.67C164.481 217.119 164.581 217.524 164.78 217.886C164.992 218.235 165.273 218.51 165.622 218.709C165.971 218.896 166.358 218.99 166.782 218.99ZM173.13 229.11V227.894C173.542 227.794 173.872 227.601 174.121 227.314C174.383 227.039 174.545 226.665 174.608 226.191H173.504V223.573H175.973V225.181C175.973 226.279 175.73 227.158 175.244 227.819C174.77 228.48 174.065 228.91 173.13 229.11ZM178.675 226.191L184.474 214.407H177.908V212.256H187.149V214.407L181.481 226.191H178.675ZM191.933 226.416C190.986 226.416 190.144 226.216 189.408 225.817C188.685 225.406 188.117 224.857 187.706 224.171C187.294 223.473 187.089 222.681 187.089 221.796C187.089 221.347 187.132 220.898 187.22 220.449C187.319 220 187.494 219.52 187.743 219.008C188.005 218.497 188.379 217.93 188.866 217.306L192.756 212.256H195.787L191.054 218.335L190.643 217.886C190.817 217.749 190.998 217.643 191.185 217.568C191.372 217.481 191.559 217.418 191.746 217.381C191.946 217.344 192.152 217.325 192.364 217.325C193.212 217.325 193.966 217.518 194.627 217.905C195.288 218.291 195.806 218.821 196.18 219.495C196.566 220.156 196.76 220.904 196.76 221.739C196.76 222.637 196.554 223.442 196.142 224.152C195.731 224.851 195.157 225.406 194.421 225.817C193.698 226.216 192.869 226.416 191.933 226.416ZM191.933 224.115C192.357 224.115 192.738 224.022 193.074 223.834C193.424 223.635 193.698 223.354 193.898 222.993C194.11 222.631 194.216 222.226 194.216 221.777C194.216 221.303 194.11 220.898 193.898 220.561C193.698 220.212 193.43 219.937 193.093 219.738C192.756 219.538 192.37 219.439 191.933 219.439C191.509 219.439 191.123 219.538 190.774 219.738C190.424 219.937 190.144 220.212 189.932 220.561C189.732 220.898 189.633 221.303 189.633 221.777C189.633 222.226 189.732 222.631 189.932 222.993C190.144 223.354 190.424 223.635 190.774 223.834C191.123 224.022 191.509 224.115 191.933 224.115ZM203.598 226.416C202.488 226.416 201.515 226.117 200.68 225.518C199.844 224.919 199.189 224.078 198.715 222.993C198.254 221.908 198.023 220.648 198.023 219.214C198.023 217.768 198.254 216.508 198.715 215.436C199.177 214.363 199.825 213.528 200.661 212.929C201.496 212.33 202.469 212.031 203.579 212.031C204.714 212.031 205.693 212.33 206.516 212.929C207.351 213.528 208.006 214.369 208.48 215.454C208.954 216.527 209.191 217.78 209.191 219.214C209.191 220.648 208.954 221.908 208.48 222.993C208.019 224.065 207.37 224.907 206.535 225.518C205.699 226.117 204.72 226.416 203.598 226.416ZM203.616 224.096C204.252 224.096 204.795 223.903 205.244 223.516C205.693 223.117 206.036 222.556 206.273 221.833C206.522 221.097 206.647 220.224 206.647 219.214C206.647 218.204 206.522 217.337 206.273 216.614C206.036 215.878 205.687 215.317 205.225 214.93C204.776 214.544 204.227 214.351 203.579 214.351C202.955 214.351 202.419 214.544 201.97 214.93C201.521 215.317 201.172 215.878 200.923 216.614C200.686 217.337 200.567 218.204 200.567 219.214C200.567 220.212 200.686 221.078 200.923 221.814C201.172 222.538 201.521 223.099 201.97 223.498C202.432 223.897 202.98 224.096 203.616 224.096ZM211.585 229.11V227.894C211.997 227.794 212.327 227.601 212.577 227.314C212.839 227.039 213.001 226.665 213.063 226.191H211.959V223.573H214.429V225.181C214.429 226.279 214.185 227.158 213.699 227.819C213.225 228.48 212.521 228.91 211.585 229.11ZM222.405 226.416C221.295 226.416 220.323 226.117 219.487 225.518C218.651 224.919 217.997 224.078 217.523 222.993C217.061 221.908 216.831 220.648 216.831 219.214C216.831 217.768 217.061 216.508 217.523 215.436C217.984 214.363 218.633 213.528 219.468 212.929C220.304 212.33 221.277 212.031 222.386 212.031C223.521 212.031 224.5 212.33 225.323 212.929C226.159 213.528 226.813 214.369 227.287 215.454C227.761 216.527 227.998 217.78 227.998 219.214C227.998 220.648 227.761 221.908 227.287 222.993C226.826 224.065 226.177 224.907 225.342 225.518C224.506 226.117 223.527 226.416 222.405 226.416ZM222.424 224.096C223.06 224.096 223.602 223.903 224.051 223.516C224.5 223.117 224.843 222.556 225.08 221.833C225.329 221.097 225.454 220.224 225.454 219.214C225.454 218.204 225.329 217.337 225.08 216.614C224.843 215.878 224.494 215.317 224.033 214.93C223.584 214.544 223.035 214.351 222.386 214.351C221.763 214.351 221.227 214.544 220.778 214.93C220.329 215.317 219.98 215.878 219.73 216.614C219.493 217.337 219.375 218.204 219.375 219.214C219.375 220.212 219.493 221.078 219.73 221.814C219.98 222.538 220.329 223.099 220.778 223.498C221.239 223.897 221.788 224.096 222.424 224.096ZM235.088 226.416C233.978 226.416 233.005 226.117 232.17 225.518C231.334 224.919 230.68 224.078 230.206 222.993C229.744 221.908 229.514 220.648 229.514 219.214C229.514 217.768 229.744 216.508 230.206 215.436C230.667 214.363 231.316 213.528 232.151 212.929C232.987 212.33 233.959 212.031 235.069 212.031C236.204 212.031 237.183 212.33 238.006 212.929C238.842 213.528 239.496 214.369 239.97 215.454C240.444 216.527 240.681 217.78 240.681 219.214C240.681 220.648 240.444 221.908 239.97 222.993C239.509 224.065 238.86 224.907 238.025 225.518C237.189 226.117 236.21 226.416 235.088 226.416ZM235.107 224.096C235.743 224.096 236.285 223.903 236.734 223.516C237.183 223.117 237.526 222.556 237.763 221.833C238.012 221.097 238.137 220.224 238.137 219.214C238.137 218.204 238.012 217.337 237.763 216.614C237.526 215.878 237.177 215.317 236.715 214.93C236.266 214.544 235.718 214.351 235.069 214.351C234.446 214.351 233.909 214.544 233.46 214.93C233.012 215.317 232.662 215.878 232.413 216.614C232.176 217.337 232.058 218.204 232.058 219.214C232.058 220.212 232.176 221.078 232.413 221.814C232.662 222.538 233.012 223.099 233.46 223.498C233.922 223.897 234.471 224.096 235.107 224.096Z" fill="#1A202C"/>
<path d="M153.643 196.837C153.069 196.837 152.53 196.735 152.028 196.531C151.526 196.321 151.086 196.026 150.708 195.648C150.337 195.269 150.046 194.826 149.835 194.316C149.624 193.8 149.519 193.24 149.519 192.636C149.519 192.025 149.624 191.465 149.835 190.956C150.046 190.446 150.337 190.003 150.708 189.624C151.086 189.246 151.523 188.955 152.017 188.751C152.519 188.548 153.061 188.446 153.643 188.446C154.225 188.446 154.764 188.551 155.258 188.762C155.76 188.966 156.197 189.257 156.568 189.635C156.946 190.006 157.241 190.446 157.451 190.956C157.67 191.465 157.779 192.025 157.779 192.636C157.779 193.24 157.67 193.8 157.451 194.316C157.241 194.826 156.946 195.269 156.568 195.648C156.197 196.026 155.76 196.321 155.258 196.531C154.764 196.735 154.225 196.837 153.643 196.837ZM153.643 195.844C154.094 195.844 154.505 195.764 154.876 195.604C155.247 195.437 155.567 195.208 155.837 194.917C156.113 194.618 156.324 194.276 156.469 193.891C156.622 193.498 156.699 193.08 156.699 192.636C156.699 192.192 156.622 191.778 156.469 191.392C156.324 191.006 156.113 190.668 155.837 190.377C155.567 190.079 155.247 189.85 154.876 189.69C154.505 189.522 154.094 189.439 153.643 189.439C153.2 189.439 152.792 189.522 152.421 189.69C152.05 189.85 151.726 190.079 151.45 190.377C151.181 190.668 150.97 191.006 150.817 191.392C150.664 191.778 150.588 192.192 150.588 192.636C150.588 193.08 150.664 193.498 150.817 193.891C150.97 194.276 151.181 194.618 151.45 194.917C151.726 195.208 152.05 195.437 152.421 195.604C152.792 195.764 153.2 195.844 153.643 195.844ZM160.637 196.706L158.335 190.825H159.469L161.313 195.8H160.921L162.776 190.825H163.91L161.597 196.706H160.637ZM167.2 196.837C166.632 196.837 166.127 196.702 165.683 196.433C165.239 196.164 164.89 195.797 164.635 195.331C164.381 194.858 164.254 194.331 164.254 193.749C164.254 193.16 164.377 192.636 164.625 192.178C164.879 191.719 165.221 191.359 165.65 191.097C166.087 190.828 166.574 190.694 167.112 190.694C167.549 190.694 167.934 190.774 168.269 190.934C168.611 191.086 168.898 191.297 169.131 191.567C169.371 191.828 169.553 192.13 169.677 192.472C169.808 192.807 169.873 193.156 169.873 193.52C169.873 193.6 169.866 193.691 169.851 193.793C169.844 193.887 169.833 193.978 169.819 194.065H164.996V193.192H169.229L168.749 193.585C168.815 193.207 168.778 192.869 168.64 192.57C168.502 192.272 168.298 192.036 168.029 191.861C167.76 191.687 167.454 191.599 167.112 191.599C166.771 191.599 166.458 191.687 166.174 191.861C165.89 192.036 165.668 192.287 165.508 192.614C165.356 192.934 165.294 193.316 165.323 193.76C165.294 194.189 165.359 194.567 165.519 194.895C165.687 195.215 165.919 195.466 166.218 195.648C166.523 195.822 166.854 195.909 167.211 195.909C167.603 195.909 167.934 195.819 168.204 195.637C168.473 195.455 168.691 195.222 168.858 194.938L169.709 195.375C169.593 195.644 169.411 195.891 169.164 196.117C168.924 196.335 168.636 196.51 168.302 196.641C167.974 196.772 167.607 196.837 167.2 196.837ZM170.978 196.706V190.825H171.971V191.905L171.862 191.752C172 191.417 172.211 191.17 172.495 191.01C172.778 190.843 173.124 190.759 173.531 190.759H173.891V191.719H173.379C172.964 191.719 172.629 191.85 172.375 192.112C172.12 192.367 171.993 192.731 171.993 193.203V196.706H170.978ZM176.299 196.837C175.913 196.837 175.571 196.768 175.273 196.63C174.982 196.484 174.753 196.288 174.586 196.04C174.418 195.786 174.335 195.495 174.335 195.167C174.335 194.855 174.4 194.575 174.531 194.327C174.669 194.073 174.88 193.858 175.164 193.683C175.455 193.509 175.819 193.385 176.255 193.312L178.437 192.952V193.804L176.484 194.131C176.106 194.196 175.829 194.316 175.655 194.491C175.488 194.666 175.404 194.88 175.404 195.135C175.404 195.375 175.498 195.575 175.688 195.735C175.884 195.895 176.128 195.975 176.419 195.975C176.79 195.975 177.11 195.899 177.379 195.746C177.655 195.586 177.87 195.371 178.023 195.102C178.183 194.833 178.263 194.535 178.263 194.207V192.712C178.263 192.392 178.143 192.134 177.903 191.938C177.67 191.734 177.361 191.632 176.975 191.632C176.641 191.632 176.342 191.719 176.08 191.894C175.826 192.061 175.637 192.287 175.513 192.57L174.629 192.112C174.738 191.843 174.913 191.603 175.153 191.392C175.393 191.174 175.673 191.003 175.993 190.879C176.313 190.756 176.648 190.694 176.997 190.694C177.448 190.694 177.845 190.781 178.186 190.956C178.528 191.123 178.794 191.359 178.983 191.665C179.179 191.963 179.278 192.312 179.278 192.712V196.706H178.285V195.593L178.47 195.659C178.346 195.891 178.179 196.095 177.968 196.27C177.757 196.444 177.51 196.582 177.226 196.684C176.942 196.786 176.633 196.837 176.299 196.837ZM180.633 196.706V188.446H181.648V196.706H180.633ZM183.004 196.706V188.446H184.019V196.706H183.004ZM189.956 196.837C189.44 196.837 188.967 196.742 188.538 196.553C188.109 196.357 187.745 196.091 187.447 195.757C187.148 195.422 186.934 195.047 186.803 194.633L187.73 194.251C187.927 194.775 188.218 195.178 188.603 195.462C188.996 195.739 189.455 195.877 189.978 195.877C190.298 195.877 190.578 195.826 190.818 195.724C191.059 195.622 191.244 195.48 191.375 195.298C191.513 195.109 191.582 194.891 191.582 194.644C191.582 194.302 191.484 194.033 191.288 193.836C191.099 193.633 190.818 193.48 190.447 193.378L188.953 192.92C188.363 192.738 187.912 192.45 187.6 192.058C187.287 191.665 187.13 191.214 187.13 190.705C187.13 190.261 187.236 189.872 187.447 189.537C187.665 189.195 187.963 188.93 188.342 188.74C188.727 188.544 189.164 188.446 189.651 188.446C190.138 188.446 190.578 188.533 190.971 188.708C191.371 188.882 191.71 189.119 191.986 189.417C192.262 189.708 192.466 190.043 192.597 190.421L191.681 190.803C191.506 190.344 191.244 189.999 190.895 189.766C190.546 189.526 190.135 189.406 189.662 189.406C189.371 189.406 189.113 189.457 188.887 189.559C188.669 189.653 188.498 189.795 188.374 189.984C188.258 190.166 188.2 190.385 188.2 190.639C188.2 190.937 188.294 191.203 188.483 191.436C188.673 191.668 188.96 191.847 189.345 191.97L190.709 192.374C191.35 192.57 191.833 192.851 192.161 193.214C192.488 193.578 192.652 194.029 192.652 194.567C192.652 195.011 192.535 195.404 192.302 195.746C192.077 196.088 191.761 196.357 191.353 196.553C190.953 196.742 190.487 196.837 189.956 196.837ZM193.879 198.888V190.825H194.872V192.09L194.741 191.839C194.959 191.49 195.258 191.214 195.636 191.01C196.014 190.799 196.447 190.694 196.934 190.694C197.487 190.694 197.982 190.828 198.418 191.097C198.862 191.367 199.211 191.734 199.466 192.199C199.72 192.658 199.848 193.182 199.848 193.771C199.848 194.345 199.72 194.866 199.466 195.331C199.211 195.797 198.862 196.164 198.418 196.433C197.982 196.702 197.484 196.837 196.923 196.837C196.451 196.837 196.018 196.732 195.625 196.521C195.239 196.31 194.941 196.011 194.73 195.626L194.894 195.451V198.888H193.879ZM196.847 195.855C197.218 195.855 197.549 195.764 197.84 195.582C198.131 195.4 198.357 195.153 198.517 194.84C198.684 194.52 198.768 194.164 198.768 193.771C198.768 193.363 198.684 193.007 198.517 192.701C198.357 192.389 198.131 192.141 197.84 191.959C197.549 191.77 197.218 191.676 196.847 191.676C196.476 191.676 196.141 191.767 195.843 191.949C195.552 192.13 195.319 192.381 195.145 192.701C194.978 193.014 194.894 193.371 194.894 193.771C194.894 194.164 194.978 194.52 195.145 194.84C195.319 195.153 195.552 195.4 195.843 195.582C196.141 195.764 196.476 195.855 196.847 195.855ZM203.666 196.837C203.099 196.837 202.593 196.702 202.15 196.433C201.706 196.164 201.357 195.797 201.102 195.331C200.847 194.858 200.72 194.331 200.72 193.749C200.72 193.16 200.844 192.636 201.091 192.178C201.346 191.719 201.688 191.359 202.117 191.097C202.553 190.828 203.041 190.694 203.579 190.694C204.015 190.694 204.401 190.774 204.736 190.934C205.078 191.086 205.365 191.297 205.598 191.567C205.838 191.828 206.02 192.13 206.143 192.472C206.274 192.807 206.34 193.156 206.34 193.52C206.34 193.6 206.332 193.691 206.318 193.793C206.311 193.887 206.3 193.978 206.285 194.065H201.462V193.192H205.696L205.216 193.585C205.281 193.207 205.245 192.869 205.107 192.57C204.968 192.272 204.765 192.036 204.496 191.861C204.226 191.687 203.921 191.599 203.579 191.599C203.237 191.599 202.924 191.687 202.641 191.861C202.357 192.036 202.135 192.287 201.975 192.614C201.822 192.934 201.76 193.316 201.789 193.76C201.76 194.189 201.826 194.567 201.986 194.895C202.153 195.215 202.386 195.466 202.684 195.648C202.99 195.822 203.321 195.909 203.677 195.909C204.07 195.909 204.401 195.819 204.67 195.637C204.939 195.455 205.158 195.222 205.325 194.938L206.176 195.375C206.06 195.644 205.878 195.891 205.63 196.117C205.39 196.335 205.103 196.51 204.768 196.641C204.441 196.772 204.074 196.837 203.666 196.837ZM207.445 196.706V190.825H208.438V191.97L208.274 191.872C208.419 191.501 208.652 191.214 208.972 191.01C209.3 190.799 209.682 190.694 210.118 190.694C210.54 190.694 210.915 190.788 211.242 190.977C211.577 191.167 211.838 191.428 212.028 191.763C212.224 192.098 212.322 192.476 212.322 192.898V196.706H211.296V193.225C211.296 192.898 211.238 192.621 211.122 192.396C211.005 192.17 210.838 191.996 210.62 191.872C210.409 191.741 210.165 191.676 209.889 191.676C209.612 191.676 209.365 191.741 209.147 191.872C208.936 191.996 208.769 192.174 208.645 192.407C208.521 192.632 208.459 192.905 208.459 193.225V196.706H207.445ZM216.229 196.837C215.677 196.837 215.178 196.702 214.735 196.433C214.298 196.164 213.953 195.797 213.698 195.331C213.443 194.866 213.316 194.345 213.316 193.771C213.316 193.182 213.443 192.658 213.698 192.199C213.953 191.734 214.298 191.367 214.735 191.097C215.178 190.828 215.677 190.694 216.229 190.694C216.717 190.694 217.15 190.799 217.528 191.01C217.906 191.214 218.204 191.49 218.423 191.839L218.259 192.09V188.446H219.285V196.706H218.292V195.451L218.423 195.626C218.219 196.011 217.921 196.31 217.528 196.521C217.142 196.732 216.71 196.837 216.229 196.837ZM216.317 195.855C216.688 195.855 217.019 195.764 217.31 195.582C217.601 195.4 217.83 195.153 217.997 194.84C218.172 194.52 218.259 194.164 218.259 193.771C218.259 193.371 218.172 193.014 217.997 192.701C217.83 192.381 217.601 192.13 217.31 191.949C217.019 191.767 216.688 191.676 216.317 191.676C215.953 191.676 215.622 191.77 215.324 191.959C215.033 192.141 214.804 192.389 214.636 192.701C214.469 193.007 214.385 193.363 214.385 193.771C214.385 194.164 214.469 194.52 214.636 194.84C214.804 195.153 215.033 195.4 215.324 195.582C215.615 195.764 215.946 195.855 216.317 195.855ZM220.637 196.706V190.825H221.652V196.706H220.637ZM220.637 189.886V188.577H221.652V189.886H220.637ZM223.008 196.706V190.825H224.001V191.97L223.838 191.872C223.983 191.501 224.216 191.214 224.536 191.01C224.863 190.799 225.245 190.694 225.682 190.694C226.104 190.694 226.478 190.788 226.806 190.977C227.14 191.167 227.402 191.428 227.591 191.763C227.788 192.098 227.886 192.476 227.886 192.898V196.706H226.86V193.225C226.86 192.898 226.802 192.621 226.686 192.396C226.569 192.17 226.402 191.996 226.184 191.872C225.973 191.741 225.729 191.676 225.453 191.676C225.176 191.676 224.929 191.741 224.711 191.872C224.5 191.996 224.332 192.174 224.209 192.407C224.085 192.632 224.023 192.905 224.023 193.225V196.706H223.008ZM231.924 199.107C231.509 199.107 231.124 199.041 230.767 198.91C230.418 198.779 230.116 198.597 229.862 198.365C229.614 198.139 229.425 197.874 229.294 197.568L230.244 197.132C230.346 197.408 230.538 197.641 230.822 197.83C231.113 198.026 231.477 198.125 231.913 198.125C232.248 198.125 232.55 198.059 232.819 197.928C233.095 197.805 233.314 197.615 233.474 197.361C233.634 197.113 233.714 196.812 233.714 196.455V195.135L233.899 195.331C233.695 195.731 233.401 196.037 233.015 196.248C232.637 196.459 232.219 196.564 231.76 196.564C231.208 196.564 230.713 196.437 230.276 196.182C229.84 195.92 229.498 195.568 229.251 195.124C229.003 194.673 228.88 194.175 228.88 193.629C228.88 193.076 229.003 192.578 229.251 192.134C229.498 191.69 229.836 191.341 230.266 191.086C230.702 190.825 231.197 190.694 231.75 190.694C232.208 190.694 232.622 190.799 232.993 191.01C233.372 191.214 233.674 191.498 233.899 191.861L233.746 192.134V190.825H234.739V196.455C234.739 196.964 234.619 197.419 234.379 197.819C234.139 198.219 233.805 198.532 233.375 198.757C232.953 198.99 232.47 199.107 231.924 199.107ZM231.848 195.582C232.197 195.582 232.51 195.495 232.786 195.32C233.07 195.146 233.295 194.913 233.463 194.622C233.63 194.324 233.714 193.993 233.714 193.629C233.714 193.272 233.63 192.945 233.463 192.647C233.295 192.349 233.07 192.112 232.786 191.938C232.51 191.763 232.197 191.676 231.848 191.676C231.491 191.676 231.168 191.763 230.877 191.938C230.586 192.112 230.356 192.349 230.189 192.647C230.029 192.938 229.949 193.265 229.949 193.629C229.949 193.993 230.029 194.324 230.189 194.622C230.356 194.913 230.582 195.146 230.866 195.32C231.157 195.495 231.484 195.582 231.848 195.582Z" fill="#596780"/>
</g>
<defs>
<filter id="filter0_d_76_6301" x="0" y="0" width="425" height="615.956" filterUnits="userSpaceOnUse" color-interpolation-filters="sRGB">
<feFlood flood-opacity="0" result="BackgroundImageFix"/>
<feColorMatrix in="SourceAlpha" type="matrix" values="0 0 0 0 0 0 0 0 0 0 0 0 0 0 0 0 0 0 127 0" result="hardAlpha"/>
<feOffset dx="20" dy="20"/>
<feGaussianBlur stdDeviation="40"/>
<feComposite in2="hardAlpha" operator="out"/>
<feColorMatrix type="matrix" values="0 0 0 0 0 0 0 0 0 0 0 0 0 0 0 0 0 0 0.15 0"/>
<feBlend mode="normal" in2="BackgroundImageFix" result="effect1_dropShadow_76_6301"/>
<feBlend mode="normal" in="SourceGraphic" in2="effect1_dropShadow_76_6301" result="shape"/>
</filter>
</defs>
</svg>
