<svg width="580" height="386" viewBox="0 0 580 386" fill="none" xmlns="http://www.w3.org/2000/svg">
<rect width="966.568" height="450" rx="13.3136" fill="white"/>
<path d="M39.1526 57.2087C38.1586 57.2087 37.2355 57.0241 36.3834 56.6549C35.5313 56.2715 34.8071 55.7531 34.2106 55.0999C33.6142 54.4466 33.1739 53.694 32.8899 52.8419L35.0201 51.9472C35.4035 52.9271 35.9645 53.6798 36.7029 54.2052C37.4414 54.7306 38.2935 54.9934 39.2591 54.9934C39.8272 54.9934 40.3242 54.9082 40.7503 54.7377C41.1763 54.5531 41.5029 54.2975 41.7302 53.9709C41.9716 53.6442 42.0923 53.2679 42.0923 52.8419C42.0923 52.2596 41.929 51.7981 41.6023 51.4573C41.2757 51.1164 40.7929 50.8466 40.1538 50.6478L37.1716 49.7105C35.9787 49.3413 35.0698 48.7803 34.4449 48.0277C33.8201 47.2608 33.5077 46.3661 33.5077 45.3437C33.5077 44.449 33.7278 43.6679 34.168 43.0005C34.6083 42.3188 35.2118 41.7863 35.9787 41.4028C36.7597 41.0194 37.6473 40.8277 38.6414 40.8277C39.5929 40.8277 40.4591 40.9981 41.2402 41.3389C42.0213 41.6656 42.6887 42.12 43.2426 42.7022C43.8106 43.2845 44.2225 43.959 44.4781 44.7259L42.3905 45.6419C42.0781 44.804 41.5881 44.1579 40.9207 43.7034C40.2674 43.249 39.5077 43.0218 38.6414 43.0218C38.116 43.0218 37.6544 43.1141 37.2568 43.2987C36.8591 43.4691 36.5467 43.7247 36.3195 44.0656C36.1065 44.3922 36 44.7756 36 45.2158C36 45.7271 36.1633 46.1815 36.4899 46.5792C36.8165 46.9768 37.3136 47.275 37.981 47.4738L40.7503 48.3472C42.0142 48.7306 42.9657 49.2845 43.6047 50.0087C44.2438 50.7188 44.5633 51.6064 44.5633 52.6715C44.5633 53.5519 44.329 54.333 43.8603 55.0147C43.4059 55.6963 42.7739 56.236 41.9645 56.6336C41.155 57.017 40.2177 57.2087 39.1526 57.2087ZM46.7246 61.2135V45.4289H49.0252V47.8147L48.7483 47.2608C49.1743 46.6076 49.7423 46.0963 50.4524 45.7271C51.1625 45.3579 51.9719 45.1732 52.8808 45.1732C53.9743 45.1732 54.9542 45.436 55.8204 45.9614C56.7009 46.4869 57.3897 47.204 57.8867 48.1129C58.398 49.0218 58.6536 50.0442 58.6536 51.1803C58.6536 52.3164 58.398 53.3389 57.8867 54.2478C57.3897 55.1567 56.708 55.8809 55.8417 56.4206C54.9755 56.946 53.9885 57.2087 52.8808 57.2087C51.9861 57.2087 51.1696 57.0241 50.4311 56.6549C49.7068 56.2857 49.1459 55.7531 48.7483 55.0573L49.1317 54.6099V61.2135H46.7246ZM52.6465 54.9721C53.3281 54.9721 53.9317 54.8087 54.4571 54.4821C54.9826 54.1555 55.3944 53.7082 55.6926 53.1401C56.0051 52.5579 56.1613 51.9046 56.1613 51.1803C56.1613 50.4561 56.0051 49.8099 55.6926 49.2419C55.3944 48.6738 54.9826 48.2265 54.4571 47.8999C53.9317 47.5732 53.3281 47.4099 52.6465 47.4099C51.979 47.4099 51.3755 47.5732 50.8358 47.8999C50.3104 48.2265 49.8914 48.6738 49.579 49.2419C49.2808 49.8099 49.1317 50.4561 49.1317 51.1803C49.1317 51.9046 49.2808 52.5579 49.579 53.1401C49.8914 53.7082 50.3104 54.1555 50.8358 54.4821C51.3755 54.8087 51.979 54.9721 52.6465 54.9721ZM65.9797 57.2087C64.8294 57.2087 63.8069 56.946 62.9123 56.4206C62.0318 55.8809 61.343 55.1567 60.846 54.2478C60.349 53.3247 60.1004 52.2951 60.1004 51.159C60.1004 49.9945 60.349 48.965 60.846 48.0703C61.3572 47.1756 62.0389 46.4727 62.891 45.9614C63.743 45.436 64.7087 45.1732 65.788 45.1732C66.6543 45.1732 67.4282 45.3224 68.1099 45.6206C68.7916 45.9188 69.3667 46.3306 69.8353 46.8561C70.304 47.3673 70.659 47.9567 70.9004 48.6241C71.1561 49.2916 71.2839 50.0016 71.2839 50.7543C71.2839 50.9389 71.2768 51.1306 71.2626 51.3295C71.2484 51.5283 71.22 51.7129 71.1774 51.8833H61.9963V49.9661H69.814L68.6638 50.8395C68.8058 50.1437 68.7561 49.5259 68.5146 48.9863C68.2874 48.4324 67.9324 47.9993 67.4495 47.6869C66.9809 47.3602 66.4271 47.1969 65.788 47.1969C65.149 47.1969 64.5809 47.3602 64.0839 47.6869C63.5868 47.9993 63.2034 48.4537 62.9336 49.0502C62.6638 49.6324 62.5572 50.3425 62.614 51.1803C62.543 51.9614 62.6495 52.6431 62.9336 53.2253C63.2318 53.8076 63.6436 54.262 64.1691 54.5886C64.7087 54.9153 65.3194 55.0786 66.001 55.0786C66.6969 55.0786 67.2862 54.9224 67.7691 54.6099C68.2661 54.2975 68.6566 53.8928 68.9407 53.3957L70.9004 54.3543C70.6732 54.894 70.3182 55.3839 69.8353 55.8241C69.3667 56.2502 68.7987 56.591 68.1312 56.8466C67.478 57.088 66.7608 57.2087 65.9797 57.2087ZM73.207 56.9531V45.4289H75.5076V47.6869L75.2307 47.3886C75.5147 46.6644 75.9691 46.1176 76.594 45.7484C77.2189 45.365 77.9431 45.1732 78.7668 45.1732C79.6189 45.1732 80.3715 45.3579 81.0248 45.7271C81.678 46.0963 82.1893 46.6076 82.5585 47.2608C82.9277 47.9141 83.1123 48.6667 83.1123 49.5188V56.9531H80.7265V50.1579C80.7265 49.5756 80.62 49.0857 80.407 48.688C80.194 48.2762 79.8887 47.9638 79.491 47.7508C79.1076 47.5235 78.6674 47.4099 78.1703 47.4099C77.6733 47.4099 77.226 47.5235 76.8283 47.7508C76.4449 47.9638 76.1467 48.2762 75.9336 48.688C75.7206 49.0999 75.6141 49.5898 75.6141 50.1579V56.9531H73.207ZM90.5879 57.2087C89.4802 57.2087 88.4862 56.946 87.6057 56.4206C86.7394 55.8809 86.0507 55.1567 85.5394 54.2478C85.0424 53.3389 84.7939 52.3164 84.7939 51.1803C84.7939 50.0442 85.0495 49.0218 85.5607 48.1129C86.072 47.204 86.7607 46.4869 87.627 45.9614C88.4933 45.436 89.4731 45.1732 90.5666 45.1732C91.4897 45.1732 92.3063 45.3579 93.0163 45.7271C93.7264 46.0963 94.2873 46.6076 94.6992 47.2608L94.337 47.8147V40.8277H96.7228V56.9531H94.4436V54.6099L94.7205 55.0573C94.3228 55.7531 93.7548 56.2857 93.0163 56.6549C92.2779 57.0241 91.4684 57.2087 90.5879 57.2087ZM90.8223 54.9721C91.4897 54.9721 92.0862 54.8087 92.6116 54.4821C93.1513 54.1555 93.5702 53.7082 93.8684 53.1401C94.1808 52.5579 94.337 51.9046 94.337 51.1803C94.337 50.4561 94.1808 49.8099 93.8684 49.2419C93.5702 48.6738 93.1513 48.2265 92.6116 47.8999C92.0862 47.5732 91.4897 47.4099 90.8223 47.4099C90.1548 47.4099 89.5512 47.5732 89.0116 47.8999C88.472 48.2265 88.053 48.6738 87.7548 49.2419C87.4566 49.8099 87.3075 50.4561 87.3075 51.1803C87.3075 51.9046 87.4566 52.5579 87.7548 53.1401C88.053 53.7082 88.4649 54.1555 88.9903 54.4821C89.5299 54.8087 90.1406 54.9721 90.8223 54.9721ZM99.107 56.9531V45.4289H101.514V56.9531H99.107ZM99.107 43.8525V41.0833H101.514V43.8525H99.107ZM103.902 56.9531V45.4289H106.203V47.6869L105.926 47.3886C106.21 46.6644 106.665 46.1176 107.289 45.7484C107.914 45.365 108.638 45.1732 109.462 45.1732C110.314 45.1732 111.067 45.3579 111.72 45.7271C112.373 46.0963 112.885 46.6076 113.254 47.2608C113.623 47.9141 113.808 48.6667 113.808 49.5188V56.9531H111.422V50.1579C111.422 49.5756 111.315 49.0857 111.102 48.688C110.889 48.2762 110.584 47.9638 110.186 47.7508C109.803 47.5235 109.363 47.4099 108.866 47.4099C108.369 47.4099 107.921 47.5235 107.524 47.7508C107.14 47.9638 106.842 48.2762 106.629 48.688C106.416 49.0999 106.309 49.5898 106.309 50.1579V56.9531H103.902ZM121.518 61.6395C120.68 61.6395 119.906 61.5046 119.196 61.2348C118.486 60.965 117.875 60.5886 117.364 60.1058C116.853 59.6371 116.469 59.0833 116.213 58.4442L118.429 57.5283C118.628 58.0679 118.99 58.5153 119.515 58.8703C120.055 59.2253 120.715 59.4028 121.496 59.4028C122.107 59.4028 122.654 59.2821 123.137 59.0407C123.619 58.8135 124.003 58.4727 124.287 58.0182C124.571 57.578 124.713 57.0454 124.713 56.4206V53.8218L125.139 54.3117C124.741 55.0502 124.187 55.6111 123.477 55.9945C122.782 56.378 121.993 56.5697 121.113 56.5697C120.048 56.5697 119.089 56.3212 118.237 55.8241C117.385 55.3271 116.711 54.6454 116.213 53.7792C115.731 52.9129 115.489 51.9401 115.489 50.8608C115.489 49.7673 115.731 48.7945 116.213 47.9425C116.711 47.0904 117.378 46.4158 118.216 45.9188C119.054 45.4218 120.012 45.1732 121.092 45.1732C121.972 45.1732 122.753 45.365 123.435 45.7484C124.131 46.1176 124.699 46.6573 125.139 47.3673L124.819 47.9638V45.4289H127.099V56.4206C127.099 57.4147 126.857 58.3022 126.374 59.0833C125.906 59.8786 125.253 60.5034 124.415 60.9579C123.577 61.4123 122.611 61.6395 121.518 61.6395ZM121.39 54.333C122.029 54.333 122.597 54.1839 123.094 53.8857C123.591 53.5732 123.982 53.1614 124.266 52.6502C124.564 52.1247 124.713 51.5354 124.713 50.8821C124.713 50.2289 124.564 49.6395 124.266 49.1141C123.967 48.5886 123.57 48.1768 123.073 47.8786C122.576 47.5661 122.015 47.4099 121.39 47.4099C120.737 47.4099 120.154 47.5661 119.643 47.8786C119.132 48.1768 118.727 48.5886 118.429 49.1141C118.145 49.6253 118.003 50.2147 118.003 50.8821C118.003 51.5212 118.145 52.1034 118.429 52.6289C118.727 53.1543 119.132 53.5732 119.643 53.8857C120.154 54.1839 120.737 54.333 121.39 54.333ZM138.582 57.2087C137.588 57.2087 136.665 57.0241 135.813 56.6549C134.961 56.2715 134.236 55.7531 133.64 55.0999C133.044 54.4466 132.603 53.694 132.319 52.8419L134.449 51.9472C134.833 52.9271 135.394 53.6798 136.132 54.2052C136.871 54.7306 137.723 54.9934 138.689 54.9934C139.257 54.9934 139.754 54.9082 140.18 54.7377C140.606 54.5531 140.932 54.2975 141.16 53.9709C141.401 53.6442 141.522 53.2679 141.522 52.8419C141.522 52.2596 141.358 51.7981 141.032 51.4573C140.705 51.1164 140.222 50.8466 139.583 50.6478L136.601 49.7105C135.408 49.3413 134.499 48.7803 133.874 48.0277C133.249 47.2608 132.937 46.3661 132.937 45.3437C132.937 44.449 133.157 43.6679 133.597 43.0005C134.038 42.3188 134.641 41.7863 135.408 41.4028C136.189 41.0194 137.077 40.8277 138.071 40.8277C139.022 40.8277 139.889 40.9981 140.67 41.3389C141.451 41.6656 142.118 42.12 142.672 42.7022C143.24 43.2845 143.652 43.959 143.907 44.7259L141.82 45.6419C141.507 44.804 141.018 44.1579 140.35 43.7034C139.697 43.249 138.937 43.0218 138.071 43.0218C137.545 43.0218 137.084 43.1141 136.686 43.2987C136.289 43.4691 135.976 43.7247 135.749 44.0656C135.536 44.3922 135.429 44.7756 135.429 45.2158C135.429 45.7271 135.593 46.1815 135.919 46.5792C136.246 46.9768 136.743 47.275 137.41 47.4738L140.18 48.3472C141.444 48.7306 142.395 49.2845 143.034 50.0087C143.673 50.7188 143.993 51.6064 143.993 52.6715C143.993 53.5519 143.758 54.333 143.29 55.0147C142.835 55.6963 142.203 56.236 141.394 56.6336C140.584 57.017 139.647 57.2087 138.582 57.2087ZM151.139 57.0809C149.931 57.0809 148.994 56.7401 148.327 56.0585C147.659 55.3768 147.326 54.4182 147.326 53.1827V47.6016H145.302V45.4289H145.621C146.161 45.4289 146.58 45.2727 146.878 44.9602C147.176 44.6478 147.326 44.2218 147.326 43.6821V42.7874H149.733V45.4289H152.353V47.6016H149.733V53.0762C149.733 53.4738 149.797 53.8147 149.924 54.0987C150.052 54.3685 150.258 54.5815 150.542 54.7377C150.826 54.8798 151.195 54.9508 151.65 54.9508C151.763 54.9508 151.891 54.9437 152.033 54.9295C152.175 54.9153 152.31 54.9011 152.438 54.8869V56.9531C152.239 56.9815 152.019 57.0099 151.778 57.0383C151.536 57.0667 151.323 57.0809 151.139 57.0809ZM157.708 57.2087C156.927 57.2087 156.238 57.0738 155.642 56.804C155.059 56.52 154.605 56.1366 154.278 55.6537C153.952 55.1567 153.788 54.5744 153.788 53.907C153.788 53.2821 153.923 52.7212 154.193 52.2241C154.477 51.7271 154.91 51.3082 155.492 50.9673C156.075 50.6265 156.806 50.3851 157.687 50.2431L161.691 49.5827V51.4786L158.155 52.0963C157.516 52.2099 157.047 52.4158 156.749 52.7141C156.451 52.9981 156.302 53.3673 156.302 53.8218C156.302 54.262 156.465 54.6241 156.792 54.9082C157.133 55.178 157.566 55.3129 158.091 55.3129C158.745 55.3129 159.313 55.1709 159.795 54.8869C160.292 54.6028 160.676 54.2265 160.946 53.7579C161.216 53.275 161.35 52.7425 161.35 52.1602V49.1993C161.35 48.6312 161.137 48.1697 160.711 47.8147C160.3 47.4454 159.746 47.2608 159.05 47.2608C158.411 47.2608 157.85 47.4312 157.367 47.7721C156.898 48.0987 156.55 48.5247 156.323 49.0502L154.321 48.049C154.534 47.4809 154.882 46.9839 155.365 46.5579C155.847 46.1176 156.408 45.7768 157.047 45.5354C157.701 45.294 158.389 45.1732 159.114 45.1732C160.023 45.1732 160.825 45.3437 161.521 45.6845C162.231 46.0253 162.778 46.5011 163.161 47.1117C163.559 47.7082 163.758 48.404 163.758 49.1993V56.9531H161.457V54.8656L161.947 54.9295C161.677 55.3981 161.329 55.8028 160.903 56.1437C160.491 56.4845 160.016 56.7472 159.476 56.9318C158.95 57.1164 158.361 57.2087 157.708 57.2087ZM170.923 57.0809C169.715 57.0809 168.778 56.7401 168.111 56.0585C167.443 55.3768 167.11 54.4182 167.11 53.1827V47.6016H165.086V45.4289H165.405C165.945 45.4289 166.364 45.2727 166.662 44.9602C166.96 44.6478 167.11 44.2218 167.11 43.6821V42.7874H169.517V45.4289H172.137V47.6016H169.517V53.0762C169.517 53.4738 169.581 53.8147 169.708 54.0987C169.836 54.3685 170.042 54.5815 170.326 54.7377C170.61 54.8798 170.979 54.9508 171.434 54.9508C171.547 54.9508 171.675 54.9437 171.817 54.9295C171.959 54.9153 172.094 54.9011 172.222 54.8869V56.9531C172.023 56.9815 171.803 57.0099 171.562 57.0383C171.32 57.0667 171.107 57.0809 170.923 57.0809ZM174.145 56.9531V45.4289H176.552V56.9531H174.145ZM174.145 43.8525V41.0833H176.552V43.8525H174.145ZM183.201 57.2087C182.022 57.2087 180.985 56.9176 180.091 56.3354C179.21 55.7531 178.592 54.9721 178.237 53.9922L180.091 53.1188C180.403 53.7721 180.829 54.2904 181.369 54.6738C181.923 55.0573 182.533 55.249 183.201 55.249C183.769 55.249 184.23 55.1212 184.585 54.8656C184.94 54.6099 185.118 54.262 185.118 53.8218C185.118 53.5377 185.04 53.3105 184.884 53.1401C184.727 52.9555 184.529 52.8064 184.287 52.6928C184.06 52.5792 183.826 52.494 183.584 52.4371L181.774 51.9259C180.779 51.6419 180.034 51.2158 179.537 50.6478C179.054 50.0656 178.813 49.391 178.813 48.6241C178.813 47.9283 178.99 47.3247 179.345 46.8135C179.7 46.288 180.19 45.8833 180.815 45.5993C181.44 45.3153 182.143 45.1732 182.924 45.1732C183.975 45.1732 184.912 45.436 185.736 45.9614C186.559 46.4727 187.142 47.1898 187.482 48.1129L185.629 48.9863C185.402 48.4324 185.04 47.9922 184.543 47.6656C184.06 47.3389 183.513 47.1756 182.903 47.1756C182.377 47.1756 181.958 47.3034 181.646 47.559C181.333 47.8005 181.177 48.12 181.177 48.5176C181.177 48.7874 181.248 49.0147 181.39 49.1993C181.532 49.3697 181.717 49.5117 181.944 49.6253C182.171 49.7247 182.405 49.8099 182.647 49.8809L184.521 50.4348C185.473 50.7046 186.204 51.1306 186.716 51.7129C187.227 52.2809 187.482 52.9626 187.482 53.7579C187.482 54.4395 187.298 55.0431 186.929 55.5685C186.574 56.0798 186.076 56.4845 185.437 56.7827C184.798 57.0667 184.053 57.2087 183.201 57.2087ZM194.399 57.0809C193.192 57.0809 192.255 56.7401 191.588 56.0585C190.92 55.3768 190.586 54.4182 190.586 53.1827V47.6016H188.563V45.4289H188.882C189.422 45.4289 189.841 45.2727 190.139 44.9602C190.437 44.6478 190.586 44.2218 190.586 43.6821V42.7874H192.994V45.4289H195.614V47.6016H192.994V53.0762C192.994 53.4738 193.057 53.8147 193.185 54.0987C193.313 54.3685 193.519 54.5815 193.803 54.7377C194.087 54.8798 194.456 54.9508 194.911 54.9508C195.024 54.9508 195.152 54.9437 195.294 54.9295C195.436 54.9153 195.571 54.9011 195.699 54.8869V56.9531C195.5 56.9815 195.28 57.0099 195.039 57.0383C194.797 57.0667 194.584 57.0809 194.399 57.0809ZM197.622 56.9531V45.4289H200.029V56.9531H197.622ZM197.622 43.8525V41.0833H200.029V43.8525H197.622ZM207.892 57.2087C206.742 57.2087 205.719 56.946 204.824 56.4206C203.944 55.8809 203.241 55.1567 202.715 54.2478C202.204 53.3389 201.949 52.3093 201.949 51.159C201.949 50.0229 202.204 49.0005 202.715 48.0916C203.227 47.1827 203.93 46.4727 204.824 45.9614C205.719 45.436 206.742 45.1732 207.892 45.1732C208.673 45.1732 209.404 45.3153 210.086 45.5993C210.768 45.8691 211.357 46.2454 211.854 46.7283C212.365 47.2111 212.742 47.7721 212.983 48.4111L210.874 49.391C210.633 48.7945 210.242 48.3188 209.702 47.9638C209.177 47.5945 208.573 47.4099 207.892 47.4099C207.239 47.4099 206.649 47.5732 206.124 47.8999C205.613 48.2123 205.208 48.6596 204.91 49.2419C204.611 49.8099 204.462 50.4561 204.462 51.1803C204.462 51.9046 204.611 52.5579 204.91 53.1401C205.208 53.7082 205.613 54.1555 206.124 54.4821C206.649 54.8087 207.239 54.9721 207.892 54.9721C208.588 54.9721 209.191 54.7945 209.702 54.4395C210.228 54.0703 210.618 53.5803 210.874 52.9697L212.983 53.9709C212.756 54.5815 212.387 55.1354 211.875 55.6324C211.378 56.1153 210.789 56.4987 210.107 56.7827C209.426 57.0667 208.687 57.2087 207.892 57.2087ZM219.17 57.2087C217.991 57.2087 216.955 56.9176 216.06 56.3354C215.179 55.7531 214.562 54.9721 214.207 53.9922L216.06 53.1188C216.372 53.7721 216.798 54.2904 217.338 54.6738C217.892 55.0573 218.502 55.249 219.17 55.249C219.738 55.249 220.2 55.1212 220.555 54.8656C220.91 54.6099 221.087 54.262 221.087 53.8218C221.087 53.5377 221.009 53.3105 220.853 53.1401C220.697 52.9555 220.498 52.8064 220.256 52.6928C220.029 52.5792 219.795 52.494 219.553 52.4371L217.743 51.9259C216.749 51.6419 216.003 51.2158 215.506 50.6478C215.023 50.0656 214.782 49.391 214.782 48.6241C214.782 47.9283 214.959 47.3247 215.314 46.8135C215.669 46.288 216.159 45.8833 216.784 45.5993C217.409 45.3153 218.112 45.1732 218.893 45.1732C219.944 45.1732 220.881 45.436 221.705 45.9614C222.529 46.4727 223.111 47.1898 223.452 48.1129L221.598 48.9863C221.371 48.4324 221.009 47.9922 220.512 47.6656C220.029 47.3389 219.482 47.1756 218.872 47.1756C218.346 47.1756 217.927 47.3034 217.615 47.559C217.302 47.8005 217.146 48.12 217.146 48.5176C217.146 48.7874 217.217 49.0147 217.359 49.1993C217.501 49.3697 217.686 49.5117 217.913 49.6253C218.14 49.7247 218.375 49.8099 218.616 49.8809L220.491 50.4348C221.442 50.7046 222.174 51.1306 222.685 51.7129C223.196 52.2809 223.452 52.9626 223.452 53.7579C223.452 54.4395 223.267 55.0431 222.898 55.5685C222.543 56.0798 222.046 56.4845 221.407 56.7827C220.768 57.0667 220.022 57.2087 219.17 57.2087Z" fill="#1A202C"/>
<path d="M37.3526 140.345C36.6071 140.345 35.9148 140.207 35.2757 139.93C34.6367 139.642 34.0935 139.253 33.6461 138.763C33.1988 138.273 32.8686 137.709 32.6556 137.07L34.2532 136.399C34.5408 137.134 34.9615 137.698 35.5154 138.092C36.0692 138.486 36.7083 138.683 37.4325 138.683C37.8586 138.683 38.2313 138.62 38.5509 138.492C38.8704 138.353 39.1154 138.162 39.2858 137.917C39.4668 137.672 39.5574 137.389 39.5574 137.07C39.5574 136.633 39.4349 136.287 39.1899 136.031C38.9449 135.776 38.5828 135.573 38.1035 135.424L35.8668 134.721C34.9722 134.444 34.2905 134.024 33.8219 133.459C33.3532 132.884 33.1189 132.213 33.1189 131.446C33.1189 130.775 33.284 130.189 33.6142 129.689C33.9444 129.178 34.397 128.778 34.9722 128.491C35.558 128.203 36.2236 128.059 36.9692 128.059C37.6828 128.059 38.3325 128.187 38.9183 128.443C39.5041 128.688 40.0047 129.028 40.4201 129.465C40.8461 129.902 41.155 130.408 41.3467 130.983L39.781 131.67C39.5467 131.041 39.1793 130.557 38.6787 130.216C38.1887 129.875 37.6189 129.705 36.9692 129.705C36.5751 129.705 36.229 129.774 35.9307 129.912C35.6325 130.04 35.3982 130.232 35.2278 130.488C35.068 130.733 34.9881 131.02 34.9881 131.35C34.9881 131.734 35.1106 132.075 35.3556 132.373C35.6006 132.671 35.9733 132.895 36.4739 133.044L38.5509 133.699C39.4988 133.986 40.2124 134.402 40.6917 134.945C41.171 135.478 41.4106 136.143 41.4106 136.942C41.4106 137.602 41.2349 138.188 40.8834 138.699C40.5426 139.211 40.0686 139.615 39.4615 139.914C38.8544 140.201 38.1515 140.345 37.3526 140.345ZM36.6177 141.751V126.653H37.8958V141.751H36.6177ZM44.789 140.153V129.849H42.5044V128.251H46.6582V140.153H44.789ZM52.6909 140.345C52.0625 140.345 51.4714 140.233 50.9175 140.01C50.3637 139.775 49.8844 139.45 49.4797 139.035C49.0749 138.62 48.7874 138.119 48.6169 137.533L50.1986 136.926C50.401 137.491 50.7311 137.922 51.1891 138.22C51.6471 138.518 52.1477 138.668 52.6909 138.668C53.1383 138.668 53.5323 138.566 53.8732 138.364C54.214 138.162 54.4803 137.885 54.672 137.533C54.8743 137.182 54.9755 136.782 54.9755 136.335C54.9755 135.877 54.8743 135.478 54.672 135.137C54.4803 134.785 54.214 134.514 53.8732 134.322C53.5323 134.12 53.1383 134.018 52.6909 134.018C52.2436 134.018 51.8335 134.12 51.4607 134.322C51.088 134.524 50.8164 134.796 50.6459 135.137L49.1282 134.801L50.0548 128.251H56.3974V129.849H50.7897L51.5087 129.066L50.8217 134.082L50.2306 133.683C50.5501 133.236 50.9388 132.911 51.3968 132.708C51.8548 132.506 52.3767 132.405 52.9625 132.405C53.74 132.405 54.4164 132.581 54.9915 132.932C55.5773 133.273 56.03 133.741 56.3495 134.338C56.6797 134.924 56.8448 135.589 56.8448 136.335C56.8448 137.091 56.6637 137.773 56.3016 138.38C55.9394 138.987 55.4442 139.466 54.8158 139.818C54.198 140.169 53.4897 140.345 52.6909 140.345ZM58.4781 140.153V128.059H60.2834V136.159L59.5805 135.983L63.91 131.51H66.1627L62.9035 134.977L66.3065 140.153H64.2296L61.1941 135.568L62.2645 135.424L59.7083 138.14L60.2834 136.942V140.153H58.4781Z" fill="#14171F" fill-opacity="0.6"/>
<path d="M37.3526 190.937C36.6071 190.937 35.9148 190.798 35.2757 190.521C34.6367 190.234 34.0935 189.845 33.6461 189.355C33.1988 188.865 32.8686 188.301 32.6556 187.662L34.2532 186.991C34.5408 187.726 34.9615 188.29 35.5154 188.684C36.0692 189.078 36.7083 189.275 37.4325 189.275C37.8586 189.275 38.2313 189.211 38.5509 189.084C38.8704 188.945 39.1154 188.753 39.2858 188.508C39.4668 188.263 39.5574 187.981 39.5574 187.662C39.5574 187.225 39.4349 186.879 39.1899 186.623C38.9449 186.368 38.5828 186.165 38.1035 186.016L35.8668 185.313C34.9722 185.036 34.2905 184.616 33.8219 184.051C33.3532 183.476 33.1189 182.805 33.1189 182.038C33.1189 181.367 33.284 180.781 33.6142 180.281C33.9444 179.769 34.397 179.37 34.9722 179.082C35.558 178.795 36.2236 178.651 36.9692 178.651C37.6828 178.651 38.3325 178.779 38.9183 179.034C39.5041 179.279 40.0047 179.62 40.4201 180.057C40.8461 180.494 41.155 181 41.3467 181.575L39.781 182.262C39.5467 181.633 39.1793 181.149 38.6787 180.808C38.1887 180.467 37.6189 180.297 36.9692 180.297C36.5751 180.297 36.229 180.366 35.9307 180.504C35.6325 180.632 35.3982 180.824 35.2278 181.079C35.068 181.324 34.9881 181.612 34.9881 181.942C34.9881 182.326 35.1106 182.666 35.3556 182.965C35.6006 183.263 35.9733 183.487 36.4739 183.636L38.5509 184.291C39.4988 184.578 40.2124 184.994 40.6917 185.537C41.171 186.069 41.4106 186.735 41.4106 187.534C41.4106 188.194 41.2349 188.78 40.8834 189.291C40.5426 189.803 40.0686 190.207 39.4615 190.505C38.8544 190.793 38.1515 190.937 37.3526 190.937ZM36.6177 192.343V177.245H37.8958V192.343H36.6177ZM44.789 190.745V180.44H42.5044V178.843H46.6582V190.745H44.789ZM53.6495 190.937C52.7016 190.937 51.8708 190.681 51.1572 190.17C50.4436 189.648 49.8844 188.929 49.4797 188.013C49.0856 187.087 48.8885 186.011 48.8885 184.786C48.8885 183.55 49.0856 182.475 49.4797 181.559C49.8844 180.643 50.4383 179.929 51.1412 179.418C51.8548 178.907 52.6856 178.651 53.6335 178.651C54.5814 178.651 55.4069 178.907 56.1098 179.418C56.8235 179.929 57.3773 180.648 57.7714 181.575C58.1761 182.491 58.3785 183.561 58.3785 184.786C58.3785 186.011 58.1814 187.087 57.7874 188.013C57.3933 188.929 56.8394 189.648 56.1258 190.17C55.4229 190.681 54.5974 190.937 53.6495 190.937ZM53.6495 189.211C54.2353 189.211 54.7412 189.03 55.1672 188.668C55.5933 188.306 55.9235 187.795 56.1578 187.134C56.3921 186.474 56.5093 185.691 56.5093 184.786C56.5093 183.881 56.3921 183.098 56.1578 182.437C55.9235 181.777 55.5933 181.266 55.1672 180.904C54.7412 180.542 54.23 180.361 53.6335 180.361C53.0477 180.361 52.5418 180.542 52.1158 180.904C51.6897 181.266 51.3596 181.777 51.1252 182.437C50.8909 183.098 50.7738 183.881 50.7738 184.786C50.7738 185.681 50.8909 186.463 51.1252 187.134C51.3596 187.795 51.6897 188.306 52.1158 188.668C52.5525 189.03 53.0637 189.211 53.6495 189.211ZM60.0851 190.745V178.651H61.8904V186.751L61.1875 186.575L65.517 182.102H67.7697L64.5105 185.569L67.9135 190.745H65.8366L62.8011 186.16L63.8715 186.016L61.3153 188.732L61.8904 187.534V190.745H60.0851Z" fill="#14171F" fill-opacity="0.6"/>
<path d="M37.3526 241.529C36.6071 241.529 35.9148 241.39 35.2757 241.113C34.6367 240.826 34.0935 240.437 33.6461 239.947C33.1988 239.457 32.8686 238.893 32.6556 238.253L34.2532 237.582C34.5408 238.317 34.9615 238.882 35.5154 239.276C36.0692 239.67 36.7083 239.867 37.4325 239.867C37.8586 239.867 38.2313 239.803 38.5509 239.675C38.8704 239.537 39.1154 239.345 39.2858 239.1C39.4668 238.855 39.5574 238.573 39.5574 238.253C39.5574 237.817 39.4349 237.471 39.1899 237.215C38.9449 236.959 38.5828 236.757 38.1035 236.608L35.8668 235.905C34.9722 235.628 34.2905 235.207 33.8219 234.643C33.3532 234.068 33.1189 233.397 33.1189 232.63C33.1189 231.959 33.284 231.373 33.6142 230.872C33.9444 230.361 34.397 229.962 34.9722 229.674C35.558 229.387 36.2236 229.243 36.9692 229.243C37.6828 229.243 38.3325 229.371 38.9183 229.626C39.5041 229.871 40.0047 230.212 40.4201 230.649C40.8461 231.085 41.155 231.591 41.3467 232.167L39.781 232.853C39.5467 232.225 39.1793 231.74 38.6787 231.4C38.1887 231.059 37.6189 230.888 36.9692 230.888C36.5751 230.888 36.229 230.958 35.9307 231.096C35.6325 231.224 35.3982 231.416 35.2278 231.671C35.068 231.916 34.9881 232.204 34.9881 232.534C34.9881 232.917 35.1106 233.258 35.3556 233.556C35.6006 233.855 35.9733 234.078 36.4739 234.227L38.5509 234.882C39.4988 235.17 40.2124 235.585 40.6917 236.129C41.171 236.661 41.4106 237.327 41.4106 238.126C41.4106 238.786 41.2349 239.372 40.8834 239.883C40.5426 240.394 40.0686 240.799 39.4615 241.097C38.8544 241.385 38.1515 241.529 37.3526 241.529ZM36.6177 242.935V227.837H37.8958V242.935H36.6177ZM46.7541 241.529C46.1257 241.529 45.5346 241.417 44.9807 241.193C44.4269 240.959 43.9476 240.634 43.5428 240.219C43.1381 239.803 42.8505 239.303 42.6801 238.717L44.2618 238.11C44.4641 238.674 44.7943 239.106 45.2523 239.404C45.7103 239.702 46.2109 239.851 46.7541 239.851C47.2014 239.851 47.5955 239.75 47.9363 239.548C48.2772 239.345 48.5434 239.068 48.7351 238.717C48.9375 238.365 49.0387 237.966 49.0387 237.519C49.0387 237.061 48.9375 236.661 48.7351 236.32C48.5434 235.969 48.2772 235.697 47.9363 235.506C47.5955 235.303 47.2014 235.202 46.7541 235.202C46.3067 235.202 45.8967 235.303 45.5239 235.506C45.1511 235.708 44.8795 235.98 44.7091 236.32L43.1914 235.985L44.118 229.435H50.4606V231.032H44.8529L45.5718 230.249L44.8849 235.266L44.2937 234.866C44.6133 234.419 45.002 234.094 45.46 233.892C45.918 233.69 46.4399 233.588 47.0257 233.588C47.8032 233.588 48.4795 233.764 49.0547 234.116C49.6405 234.456 50.0931 234.925 50.4127 235.522C50.7428 236.107 50.9079 236.773 50.9079 237.519C50.9079 238.275 50.7269 238.956 50.3647 239.564C50.0026 240.171 49.5073 240.65 48.8789 241.001C48.2612 241.353 47.5529 241.529 46.7541 241.529ZM52.5413 241.337V229.243H54.3466V237.343L53.6436 237.167L57.9732 232.694H60.2259L56.9667 236.161L60.3697 241.337H58.2927L55.2572 236.752L56.3277 236.608L53.7714 239.324L54.3466 238.126V241.337H52.5413Z" fill="#14171F" fill-opacity="0.6"/>
<path d="M37.3526 292.12C36.6071 292.12 35.9148 291.982 35.2757 291.705C34.6367 291.417 34.0935 291.029 33.6461 290.539C33.1988 290.049 32.8686 289.484 32.6556 288.845L34.2532 288.174C34.5408 288.909 34.9615 289.474 35.5154 289.868C36.0692 290.262 36.7083 290.459 37.4325 290.459C37.8586 290.459 38.2313 290.395 38.5509 290.267C38.8704 290.129 39.1154 289.937 39.2858 289.692C39.4668 289.447 39.5574 289.165 39.5574 288.845C39.5574 288.409 39.4349 288.062 39.1899 287.807C38.9449 287.551 38.5828 287.349 38.1035 287.2L35.8668 286.497C34.9722 286.22 34.2905 285.799 33.8219 285.235C33.3532 284.659 33.1189 283.988 33.1189 283.222C33.1189 282.551 33.284 281.965 33.6142 281.464C33.9444 280.953 34.397 280.554 34.9722 280.266C35.558 279.978 36.2236 279.835 36.9692 279.835C37.6828 279.835 38.3325 279.962 38.9183 280.218C39.5041 280.463 40.0047 280.804 40.4201 281.241C40.8461 281.677 41.155 282.183 41.3467 282.758L39.781 283.445C39.5467 282.817 39.1793 282.332 38.6787 281.991C38.1887 281.651 37.6189 281.48 36.9692 281.48C36.5751 281.48 36.229 281.549 35.9307 281.688C35.6325 281.816 35.3982 282.007 35.2278 282.263C35.068 282.508 34.9881 282.796 34.9881 283.126C34.9881 283.509 35.1106 283.85 35.3556 284.148C35.6006 284.446 35.9733 284.67 36.4739 284.819L38.5509 285.474C39.4988 285.762 40.2124 286.177 40.6917 286.72C41.171 287.253 41.4106 287.919 41.4106 288.717C41.4106 289.378 41.2349 289.964 40.8834 290.475C40.5426 290.986 40.0686 291.391 39.4615 291.689C38.8544 291.977 38.1515 292.12 37.3526 292.12ZM36.6177 293.526V278.429H37.8958V293.526H36.6177ZM44.789 291.929V281.624H42.5044V280.026H46.6582V291.929H44.789ZM48.9684 291.929V279.835H50.7738V287.935L50.0708 287.759L54.4004 283.286H56.653L53.3939 286.752L56.7968 291.929H54.7199L51.6844 287.344L52.7548 287.2L50.1986 289.916L50.7738 288.717V291.929H48.9684Z" fill="#14171F" fill-opacity="0.6"/>
<path d="M37.3526 342.712C36.6071 342.712 35.9148 342.574 35.2757 342.297C34.6367 342.009 34.0935 341.621 33.6461 341.131C33.1988 340.641 32.8686 340.076 32.6556 339.437L34.2532 338.766C34.5408 339.501 34.9615 340.065 35.5154 340.46C36.0692 340.854 36.7083 341.051 37.4325 341.051C37.8586 341.051 38.2313 340.987 38.5509 340.859C38.8704 340.721 39.1154 340.529 39.2858 340.284C39.4668 340.039 39.5574 339.757 39.5574 339.437C39.5574 339 39.4349 338.654 39.1899 338.399C38.9449 338.143 38.5828 337.941 38.1035 337.792L35.8668 337.089C34.9722 336.812 34.2905 336.391 33.8219 335.826C33.3532 335.251 33.1189 334.58 33.1189 333.813C33.1189 333.142 33.284 332.557 33.6142 332.056C33.9444 331.545 34.397 331.145 34.9722 330.858C35.558 330.57 36.2236 330.426 36.9692 330.426C37.6828 330.426 38.3325 330.554 38.9183 330.81C39.5041 331.055 40.0047 331.396 40.4201 331.832C40.8461 332.269 41.155 332.775 41.3467 333.35L39.781 334.037C39.5467 333.409 39.1793 332.924 38.6787 332.583C38.1887 332.242 37.6189 332.072 36.9692 332.072C36.5751 332.072 36.229 332.141 35.9307 332.28C35.6325 332.407 35.3982 332.599 35.2278 332.855C35.068 333.1 34.9881 333.387 34.9881 333.718C34.9881 334.101 35.1106 334.442 35.3556 334.74C35.6006 335.038 35.9733 335.262 36.4739 335.411L38.5509 336.066C39.4988 336.354 40.2124 336.769 40.6917 337.312C41.171 337.845 41.4106 338.51 41.4106 339.309C41.4106 339.97 41.2349 340.555 40.8834 341.067C40.5426 341.578 40.0686 341.983 39.4615 342.281C38.8544 342.568 38.1515 342.712 37.3526 342.712ZM36.6177 344.118V329.021H37.8958V344.118H36.6177ZM46.7541 342.712C46.1257 342.712 45.5346 342.6 44.9807 342.377C44.4269 342.142 43.9476 341.818 43.5428 341.402C43.1381 340.987 42.8505 340.486 42.6801 339.9L44.2618 339.293C44.4641 339.858 44.7943 340.289 45.2523 340.587C45.7103 340.886 46.2109 341.035 46.7541 341.035C47.2014 341.035 47.5955 340.934 47.9363 340.731C48.2772 340.529 48.5434 340.252 48.7351 339.9C48.9375 339.549 49.0387 339.15 49.0387 338.702C49.0387 338.244 48.9375 337.845 48.7351 337.504C48.5434 337.152 48.2772 336.881 47.9363 336.689C47.5955 336.487 47.2014 336.386 46.7541 336.386C46.3067 336.386 45.8967 336.487 45.5239 336.689C45.1511 336.892 44.8795 337.163 44.7091 337.504L43.1914 337.168L44.118 330.618H50.4606V332.216H44.8529L45.5718 331.433L44.8849 336.45L44.2937 336.05C44.6133 335.603 45.002 335.278 45.46 335.076C45.918 334.873 46.4399 334.772 47.0257 334.772C47.8032 334.772 48.4795 334.948 49.0547 335.299C49.6405 335.64 50.0931 336.109 50.4127 336.705C50.7428 337.291 50.9079 337.957 50.9079 338.702C50.9079 339.458 50.7269 340.14 50.3647 340.747C50.0026 341.354 49.5073 341.834 48.8789 342.185C48.2612 342.536 47.5529 342.712 46.7541 342.712ZM57.2223 342.712C56.2744 342.712 55.4436 342.457 54.73 341.945C54.0164 341.423 53.4572 340.705 53.0525 339.789C52.6584 338.862 52.4614 337.786 52.4614 336.561C52.4614 335.326 52.6584 334.25 53.0525 333.334C53.4572 332.418 54.0111 331.705 54.714 331.193C55.4277 330.682 56.2584 330.426 57.2063 330.426C58.1543 330.426 58.9797 330.682 59.6827 331.193C60.3963 331.705 60.9501 332.423 61.3442 333.35C61.749 334.266 61.9513 335.336 61.9513 336.561C61.9513 337.786 61.7543 338.862 61.3602 339.789C60.9661 340.705 60.4123 341.423 59.6987 341.945C58.9957 342.457 58.1703 342.712 57.2223 342.712ZM57.2223 340.987C57.8081 340.987 58.314 340.806 58.7401 340.444C59.1661 340.081 59.4963 339.57 59.7306 338.91C59.9649 338.25 60.0821 337.467 60.0821 336.561C60.0821 335.656 59.9649 334.873 59.7306 334.213C59.4963 333.552 59.1661 333.041 58.7401 332.679C58.314 332.317 57.8028 332.136 57.2063 332.136C56.6205 332.136 56.1146 332.317 55.6886 332.679C55.2626 333.041 54.9324 333.552 54.6981 334.213C54.4637 334.873 54.3466 335.656 54.3466 336.561C54.3466 337.456 54.4637 338.239 54.6981 338.91C54.9324 339.57 55.2626 340.081 55.6886 340.444C56.1253 340.806 56.6365 340.987 57.2223 340.987ZM68.339 342.712C67.3911 342.712 66.5603 342.457 65.8467 341.945C65.1331 341.423 64.5739 340.705 64.1692 339.789C63.7751 338.862 63.578 337.786 63.578 336.561C63.578 335.326 63.7751 334.25 64.1692 333.334C64.5739 332.418 65.1277 331.705 65.8307 331.193C66.5443 330.682 67.3751 330.426 68.323 330.426C69.2709 330.426 70.0964 330.682 70.7993 331.193C71.5129 331.705 72.0668 332.423 72.4609 333.35C72.8656 334.266 73.068 335.336 73.068 336.561C73.068 337.786 72.8709 338.862 72.4769 339.789C72.0828 340.705 71.5289 341.423 70.8153 341.945C70.1124 342.457 69.2869 342.712 68.339 342.712ZM68.339 340.987C68.9248 340.987 69.4307 340.806 69.8567 340.444C70.2828 340.081 70.6129 339.57 70.8473 338.91C71.0816 338.25 71.1987 337.467 71.1987 336.561C71.1987 335.656 71.0816 334.873 70.8473 334.213C70.6129 333.552 70.2828 333.041 69.8567 332.679C69.4307 332.317 68.9195 332.136 68.323 332.136C67.7372 332.136 67.2313 332.317 66.8053 332.679C66.3792 333.041 66.049 333.552 65.8147 334.213C65.5804 334.873 65.4632 335.656 65.4632 336.561C65.4632 337.456 65.5804 338.239 65.8147 338.91C66.049 339.57 66.3792 340.081 66.8053 340.444C67.2419 340.806 67.7532 340.987 68.339 340.987Z" fill="#14171F" fill-opacity="0.6"/>
<path d="M91.7754 133.136H934.615" stroke="#F0F0F0" stroke-width="1.33136"/>
<path d="M91.7754 183.728H934.615" stroke="#F0F0F0" stroke-width="1.33136"/>
<path d="M91.7754 234.319H934.615" stroke="#F0F0F0" stroke-width="1.33136"/>
<path d="M91.7754 284.911H934.615" stroke="#F0F0F0" stroke-width="1.33136"/>
<path d="M91.7754 335.503H934.615" stroke="#F0F0F0" stroke-width="1.33136"/>
<path d="M121.154 179.734C121.154 175.323 124.73 171.746 129.142 171.746C133.554 171.746 137.13 175.323 137.13 179.734V368.788H121.154V179.734Z" fill="#725CFF"/>
<path d="M190.385 267.604C190.385 263.193 193.961 259.616 198.373 259.616C202.784 259.616 206.361 263.193 206.361 267.604V368.788H190.385V267.604Z" fill="#725CFF"/>
<path d="M259.615 153.106C259.615 148.695 263.192 145.118 267.603 145.118C272.015 145.118 275.592 148.695 275.592 153.106V368.787H259.615V153.106Z" fill="#725CFF"/>
<path d="M328.846 217.013C328.846 212.601 332.423 209.024 336.834 209.024C341.246 209.024 344.823 212.601 344.823 217.013V368.788H328.846V217.013Z" fill="#725CFF"/>
<path d="M398.077 248.965C398.077 244.553 401.653 240.977 406.065 240.977C410.477 240.977 414.053 244.553 414.053 248.965V368.787H398.077V248.965Z" fill="#725CFF"/>
<path d="M467.308 137.131C467.308 132.719 470.884 129.143 475.296 129.143C479.708 129.143 483.284 132.719 483.284 137.131V368.788H467.308V137.131Z" fill="#1C1E23"/>
<path d="M536.538 217.013C536.538 212.601 540.115 209.024 544.526 209.024C548.938 209.024 552.515 212.601 552.515 217.013V368.788H536.538V217.013Z" fill="#725CFF"/>
<g filter="url(#filter0_d_76_6246)">
<path fill-rule="evenodd" clip-rule="evenodd" d="M451.331 123.817C451.331 120.875 448.947 118.491 446.006 118.491H330.177C327.236 118.491 324.852 120.875 324.852 123.817V177.071C324.852 180.012 327.236 182.397 330.178 182.397H446.006C448.947 182.397 451.331 180.012 451.331 177.071V163.055C451.331 161.161 452.338 159.409 453.974 158.454L460.652 154.56C464.176 152.505 464.176 147.414 460.652 145.359L453.974 141.465C452.338 140.511 451.331 138.759 451.331 136.865V123.817Z" fill="#1C1E23"/>
</g>
<path d="M351.173 138.816V128.898H357.71V130.296H352.744V133.145H357.444V134.543H352.744V137.418H357.71V138.816H351.173ZM358.037 138.816L360.554 135.208L358.037 131.614H359.808L361.872 134.623H361.02L363.083 131.614H364.854L362.324 135.208L364.841 138.816H363.07L361.033 135.794H361.858L359.808 138.816H358.037ZM365.615 141.479V131.614H367.053V133.105L366.88 132.759C367.146 132.35 367.501 132.031 367.945 131.8C368.389 131.569 368.895 131.454 369.463 131.454C370.146 131.454 370.758 131.618 371.3 131.947C371.85 132.275 372.281 132.723 372.591 133.291C372.911 133.859 373.071 134.498 373.071 135.208C373.071 135.918 372.911 136.558 372.591 137.126C372.281 137.694 371.855 138.146 371.313 138.484C370.772 138.812 370.155 138.976 369.463 138.976C368.903 138.976 368.393 138.861 367.931 138.63C367.479 138.399 367.128 138.066 366.88 137.631L367.119 137.352V141.479H365.615ZM369.316 137.578C369.742 137.578 370.119 137.476 370.448 137.272C370.776 137.068 371.034 136.788 371.22 136.433C371.415 136.069 371.513 135.661 371.513 135.208C371.513 134.756 371.415 134.352 371.22 133.997C371.034 133.642 370.776 133.362 370.448 133.158C370.119 132.954 369.742 132.852 369.316 132.852C368.899 132.852 368.522 132.954 368.184 133.158C367.856 133.362 367.594 133.642 367.399 133.997C367.213 134.352 367.119 134.756 367.119 135.208C367.119 135.661 367.213 136.069 367.399 136.433C367.594 136.788 367.856 137.068 368.184 137.272C368.522 137.476 368.899 137.578 369.316 137.578ZM377.649 138.976C376.93 138.976 376.291 138.812 375.732 138.484C375.182 138.146 374.751 137.694 374.441 137.126C374.13 136.549 373.975 135.905 373.975 135.195C373.975 134.467 374.13 133.824 374.441 133.265C374.76 132.705 375.186 132.266 375.719 131.947C376.251 131.618 376.855 131.454 377.53 131.454C378.071 131.454 378.555 131.547 378.981 131.734C379.407 131.92 379.766 132.177 380.059 132.506C380.352 132.825 380.574 133.194 380.725 133.611C380.885 134.028 380.964 134.472 380.964 134.942C380.964 135.058 380.96 135.177 380.951 135.302C380.942 135.426 380.925 135.541 380.898 135.648H375.16V134.45H380.046L379.327 134.995C379.416 134.56 379.385 134.174 379.234 133.837C379.092 133.491 378.87 133.22 378.568 133.025C378.275 132.821 377.929 132.719 377.53 132.719C377.13 132.719 376.775 132.821 376.464 133.025C376.154 133.22 375.914 133.504 375.746 133.877C375.577 134.241 375.51 134.685 375.546 135.208C375.501 135.697 375.568 136.123 375.746 136.487C375.932 136.85 376.189 137.134 376.518 137.339C376.855 137.543 377.237 137.645 377.663 137.645C378.098 137.645 378.466 137.547 378.768 137.352C379.078 137.157 379.322 136.904 379.5 136.593L380.725 137.192C380.583 137.529 380.361 137.836 380.059 138.111C379.766 138.377 379.411 138.59 378.994 138.75C378.586 138.901 378.138 138.976 377.649 138.976ZM382.166 138.816V131.614H383.604V133.025L383.431 132.839C383.609 132.386 383.893 132.044 384.283 131.813C384.674 131.574 385.127 131.454 385.641 131.454C386.174 131.454 386.644 131.569 387.053 131.8C387.461 132.031 387.78 132.35 388.011 132.759C388.242 133.167 388.357 133.637 388.357 134.17V138.816H386.866V134.569C386.866 134.205 386.8 133.899 386.666 133.651C386.533 133.393 386.342 133.198 386.094 133.065C385.854 132.923 385.579 132.852 385.269 132.852C384.958 132.852 384.678 132.923 384.43 133.065C384.19 133.198 384.004 133.393 383.871 133.651C383.737 133.908 383.671 134.214 383.671 134.569V138.816H382.166ZM392.364 138.976C391.627 138.976 390.979 138.794 390.42 138.43C389.87 138.066 389.484 137.578 389.262 136.966L390.42 136.42C390.615 136.828 390.882 137.152 391.219 137.392C391.565 137.631 391.947 137.751 392.364 137.751C392.719 137.751 393.007 137.671 393.229 137.512C393.451 137.352 393.562 137.134 393.562 136.859C393.562 136.682 393.513 136.54 393.416 136.433C393.318 136.318 393.194 136.225 393.043 136.154C392.901 136.083 392.754 136.029 392.603 135.994L391.472 135.674C390.851 135.497 390.385 135.231 390.074 134.876C389.772 134.512 389.621 134.09 389.621 133.611C389.621 133.176 389.732 132.799 389.954 132.479C390.176 132.151 390.482 131.898 390.873 131.72C391.263 131.543 391.703 131.454 392.191 131.454C392.848 131.454 393.433 131.618 393.948 131.947C394.463 132.266 394.827 132.714 395.04 133.291L393.882 133.837C393.74 133.491 393.513 133.216 393.203 133.012C392.901 132.808 392.559 132.705 392.177 132.705C391.849 132.705 391.587 132.785 391.392 132.945C391.197 133.096 391.099 133.296 391.099 133.544C391.099 133.713 391.143 133.855 391.232 133.97C391.321 134.077 391.436 134.166 391.578 134.237C391.72 134.299 391.867 134.352 392.018 134.396L393.189 134.742C393.784 134.911 394.241 135.177 394.561 135.541C394.88 135.896 395.04 136.322 395.04 136.819C395.04 137.245 394.924 137.623 394.694 137.951C394.472 138.271 394.161 138.524 393.762 138.71C393.362 138.887 392.896 138.976 392.364 138.976ZM399.629 138.976C398.91 138.976 398.271 138.812 397.712 138.484C397.162 138.146 396.731 137.694 396.421 137.126C396.11 136.549 395.955 135.905 395.955 135.195C395.955 134.467 396.11 133.824 396.421 133.265C396.74 132.705 397.166 132.266 397.699 131.947C398.231 131.618 398.835 131.454 399.51 131.454C400.051 131.454 400.535 131.547 400.961 131.734C401.387 131.92 401.746 132.177 402.039 132.506C402.332 132.825 402.554 133.194 402.705 133.611C402.865 134.028 402.944 134.472 402.944 134.942C402.944 135.058 402.94 135.177 402.931 135.302C402.922 135.426 402.904 135.541 402.878 135.648H397.14V134.45H402.026L401.307 134.995C401.396 134.56 401.365 134.174 401.214 133.837C401.072 133.491 400.85 133.22 400.548 133.025C400.255 132.821 399.909 132.719 399.51 132.719C399.11 132.719 398.755 132.821 398.444 133.025C398.134 133.22 397.894 133.504 397.725 133.877C397.557 134.241 397.49 134.685 397.526 135.208C397.481 135.697 397.548 136.123 397.725 136.487C397.912 136.85 398.169 137.134 398.498 137.339C398.835 137.543 399.217 137.645 399.643 137.645C400.078 137.645 400.446 137.547 400.748 137.352C401.058 137.157 401.302 136.904 401.48 136.593L402.705 137.192C402.563 137.529 402.341 137.836 402.039 138.111C401.746 138.377 401.391 138.59 400.974 138.75C400.566 138.901 400.117 138.976 399.629 138.976Z" fill="white"/>
<path d="M356.467 168.674C355.584 168.674 354.783 168.506 354.062 168.171C353.341 167.835 352.733 167.388 352.236 166.829C351.738 166.257 351.384 165.629 351.173 164.946L352.515 164.443C352.838 165.387 353.341 166.108 354.025 166.605C354.708 167.09 355.522 167.332 356.467 167.332C357.063 167.332 357.585 167.239 358.032 167.052C358.492 166.853 358.846 166.58 359.095 166.232C359.343 165.884 359.467 165.48 359.467 165.021C359.467 164.337 359.281 163.809 358.908 163.436C358.536 163.064 358.001 162.778 357.305 162.579L354.808 161.833C353.826 161.548 353.068 161.069 352.534 160.398C352.012 159.727 351.751 158.963 351.751 158.106C351.751 157.372 351.931 156.726 352.291 156.167C352.652 155.595 353.143 155.148 353.764 154.825C354.398 154.502 355.112 154.34 355.907 154.34C356.74 154.34 357.486 154.496 358.144 154.806C358.815 155.105 359.38 155.502 359.84 155.999C360.3 156.496 360.629 157.049 360.828 157.658L359.523 158.18C359.225 157.36 358.759 156.739 358.125 156.316C357.504 155.894 356.771 155.682 355.926 155.682C355.392 155.682 354.92 155.776 354.509 155.962C354.112 156.148 353.801 156.416 353.578 156.764C353.354 157.111 353.242 157.521 353.242 157.994C353.242 158.565 353.422 159.081 353.783 159.541C354.143 159.988 354.696 160.324 355.441 160.547L357.641 161.2C358.734 161.523 359.561 161.989 360.12 162.598C360.679 163.206 360.959 163.971 360.959 164.89C360.959 165.636 360.766 166.294 360.381 166.866C360.008 167.425 359.48 167.866 358.796 168.189C358.125 168.512 357.349 168.674 356.467 168.674ZM355.665 170.314V152.7H356.97V170.314H355.665ZM365.199 168.45V155.869H362.589V154.564H366.69V168.45H365.199ZM373.998 168.674C373.277 168.674 372.606 168.55 371.985 168.301C371.376 168.053 370.842 167.698 370.382 167.239C369.922 166.779 369.574 166.232 369.338 165.598L370.475 165.039C370.761 165.76 371.227 166.332 371.873 166.754C372.532 167.164 373.24 167.369 373.998 167.369C374.607 167.369 375.147 167.226 375.62 166.94C376.104 166.655 376.483 166.269 376.757 165.785C377.03 165.288 377.167 164.735 377.167 164.126C377.167 163.492 377.024 162.933 376.738 162.448C376.465 161.964 376.092 161.585 375.62 161.311C375.147 161.026 374.613 160.883 374.017 160.883C373.408 160.883 372.842 161.026 372.321 161.311C371.811 161.585 371.438 161.92 371.202 162.318L370.028 162.094L371.072 154.564H378.099V155.869H371.612L372.19 155.366L371.351 161.293L370.774 161.032C371.208 160.498 371.718 160.119 372.302 159.895C372.886 159.659 373.482 159.541 374.091 159.541C374.986 159.541 375.775 159.752 376.458 160.174C377.142 160.585 377.676 161.137 378.061 161.833C378.459 162.517 378.658 163.281 378.658 164.126C378.658 164.983 378.453 165.76 378.043 166.456C377.645 167.139 377.092 167.68 376.384 168.077C375.688 168.475 374.893 168.674 373.998 168.674ZM381.402 168.45V166.4H382.893V168.45H381.402ZM391.283 168.674C390.189 168.674 389.226 168.376 388.394 167.779C387.574 167.17 386.934 166.332 386.474 165.263C386.014 164.182 385.784 162.927 385.784 161.498C385.784 160.069 386.014 158.82 386.474 157.751C386.934 156.67 387.574 155.832 388.394 155.235C389.214 154.639 390.171 154.34 391.264 154.34C392.358 154.34 393.315 154.639 394.135 155.235C394.955 155.832 395.595 156.67 396.054 157.751C396.514 158.82 396.744 160.069 396.744 161.498C396.744 162.927 396.514 164.182 396.054 165.263C395.607 166.344 394.973 167.183 394.153 167.779C393.333 168.376 392.376 168.674 391.283 168.674ZM391.283 167.276C392.078 167.276 392.774 167.034 393.37 166.549C393.967 166.064 394.433 165.393 394.768 164.536C395.104 163.666 395.272 162.653 395.272 161.498C395.272 160.342 395.104 159.336 394.768 158.478C394.433 157.608 393.967 156.937 393.37 156.465C392.774 155.981 392.072 155.738 391.264 155.738C390.469 155.738 389.773 155.981 389.177 156.465C388.58 156.937 388.114 157.608 387.779 158.478C387.443 159.336 387.275 160.342 387.275 161.498C387.275 162.641 387.443 163.648 387.779 164.517C388.114 165.387 388.58 166.064 389.177 166.549C389.786 167.034 390.488 167.276 391.283 167.276ZM403.201 168.674C402.48 168.674 401.816 168.55 401.207 168.301C400.598 168.053 400.064 167.698 399.604 167.239C399.156 166.779 398.815 166.232 398.579 165.598L399.772 165.039C400.057 165.76 400.505 166.332 401.114 166.754C401.722 167.164 402.418 167.369 403.201 167.369C403.822 167.369 404.375 167.251 404.86 167.015C405.345 166.766 405.724 166.412 405.997 165.953C406.27 165.493 406.407 164.934 406.407 164.275C406.407 163.616 406.264 163.057 405.978 162.598C405.705 162.138 405.326 161.79 404.841 161.554C404.357 161.318 403.804 161.2 403.182 161.2C403.021 161.2 402.841 161.206 402.642 161.218C402.456 161.231 402.3 161.249 402.176 161.274L401.878 160.622L405.624 155.869H399.231V154.564H407.302V155.869L403.798 160.286L403.611 160.044C404.444 160.069 405.183 160.268 405.829 160.64C406.475 161.001 406.979 161.492 407.339 162.113C407.712 162.734 407.898 163.455 407.898 164.275C407.898 165.095 407.699 165.841 407.302 166.512C406.904 167.17 406.351 167.698 405.643 168.096C404.935 168.481 404.121 168.674 403.201 168.674ZM415.547 168.674C414.454 168.674 413.491 168.376 412.658 167.779C411.838 167.17 411.198 166.332 410.738 165.263C410.279 164.182 410.049 162.927 410.049 161.498C410.049 160.069 410.279 158.82 410.738 157.751C411.198 156.67 411.838 155.832 412.658 155.235C413.478 154.639 414.435 154.34 415.529 154.34C416.622 154.34 417.579 154.639 418.399 155.235C419.219 155.832 419.859 156.67 420.319 157.751C420.779 158.82 421.008 160.069 421.008 161.498C421.008 162.927 420.779 164.182 420.319 165.263C419.871 166.344 419.238 167.183 418.418 167.779C417.597 168.376 416.641 168.674 415.547 168.674ZM415.547 167.276C416.342 167.276 417.038 167.034 417.635 166.549C418.231 166.064 418.697 165.393 419.033 164.536C419.368 163.666 419.536 162.653 419.536 161.498C419.536 160.342 419.368 159.336 419.033 158.478C418.697 157.608 418.231 156.937 417.635 156.465C417.038 155.981 416.336 155.738 415.529 155.738C414.733 155.738 414.037 155.981 413.441 156.465C412.844 156.937 412.379 157.608 412.043 158.478C411.707 159.336 411.54 160.342 411.54 161.498C411.54 162.641 411.707 163.648 412.043 164.517C412.379 165.387 412.844 166.064 413.441 166.549C414.05 167.034 414.752 167.276 415.547 167.276Z" fill="white"/>
<defs>
<filter id="filter0_d_76_6246" x="292.899" y="115.828" width="202.348" height="127.811" filterUnits="userSpaceOnUse" color-interpolation-filters="sRGB">
<feFlood flood-opacity="0" result="BackgroundImageFix"/>
<feColorMatrix in="SourceAlpha" type="matrix" values="0 0 0 0 0 0 0 0 0 0 0 0 0 0 0 0 0 0 127 0" result="hardAlpha"/>
<feOffset dy="29.2899"/>
<feGaussianBlur stdDeviation="15.9763"/>
<feComposite in2="hardAlpha" operator="out"/>
<feColorMatrix type="matrix" values="0 0 0 0 0 0 0 0 0 0 0 0 0 0 0 0 0 0 0.25 0"/>
<feBlend mode="normal" in2="BackgroundImageFix" result="effect1_dropShadow_76_6246"/>
<feBlend mode="normal" in="SourceGraphic" in2="effect1_dropShadow_76_6246" result="shape"/>
</filter>
</defs>
</svg>
